<svg xmlns="http://www.w3.org/2000/svg" xmlns:xlink="http://www.w3.org/1999/xlink" contentStyleType="text/css" height="2678px" preserveAspectRatio="none" style="width:1522px;height:2678px;background:#FEFEFE;" version="1.1" viewBox="0 0 1522 2678" width="1522px" zoomAndPan="magnify"><title>Diagrama de Secuencia - Flujo de Autenticaci&#243;n</title><defs/><g><rect fill="#FEFEFE" height="2678" style="stroke:none;stroke-width:1;" width="1522" x="0" y="0"/><text fill="#000000" font-family="sans-serif" font-size="14" font-weight="bold" lengthAdjust="spacing" textLength="319.7441" x="597.2976" y="29.5332">Diagrama de Secuencia - Flujo de Autenticaci&#243;n</text><rect fill="#FFFFFF" height="2380.9531" style="stroke:#181818;stroke-width:1;" width="10" x="250.9858" y="197.9219"/><rect fill="#FFFFFF" height="1006.2188" style="stroke:#181818;stroke-width:1;" width="10" x="566.644" y="228.2734"/><rect fill="#FFFFFF" height="507.1094" style="stroke:#181818;stroke-width:1;" width="10" x="566.644" y="1888.0078"/><rect fill="#FFFFFF" height="975.8672" style="stroke:#181818;stroke-width:1;" width="10" x="847.2124" y="258.625"/><rect fill="none" height="832.4609" style="stroke:#000000;stroke-width:1.5;" width="1495.3394" x="10" y="395.0313"/><rect fill="none" height="649.8672" style="stroke:#000000;stroke-width:1.5;" width="1475.3394" x="20" y="570.625"/><rect fill="none" height="363.7031" style="stroke:#000000;stroke-width:1.5;" width="1475.3394" x="20" y="1420.25"/><rect fill="none" height="337.7031" style="stroke:#000000;stroke-width:1.5;" width="1375.8911" x="20" y="2050.4141"/><line style="stroke:#181818;stroke-width:0.5;stroke-dasharray:5.0,5.0;" x1="57" x2="57" y1="121.2188" y2="2596.875"/><line style="stroke:#181818;stroke-width:0.5;stroke-dasharray:5.0,5.0;" x1="255.9688" x2="255.9688" y1="121.2188" y2="2596.875"/><line style="stroke:#181818;stroke-width:0.5;stroke-dasharray:5.0,5.0;" x1="570.8994" x2="570.8994" y1="121.2188" y2="2596.875"/><line style="stroke:#181818;stroke-width:0.5;stroke-dasharray:5.0,5.0;" x1="851.4712" x2="851.4712" y1="121.2188" y2="2596.875"/><line style="stroke:#181818;stroke-width:0.5;stroke-dasharray:5.0,5.0;" x1="1075.3916" x2="1075.3916" y1="121.2188" y2="2596.875"/><line style="stroke:#181818;stroke-width:0.5;stroke-dasharray:5.0,5.0;" x1="1344.6294" x2="1344.6294" y1="121.2188" y2="2596.875"/><line style="stroke:#181818;stroke-width:0.5;stroke-dasharray:5.0,5.0;" x1="1439.8911" x2="1439.8911" y1="121.2188" y2="2596.875"/><text fill="#000000" font-family="sans-serif" font-size="14" lengthAdjust="spacing" textLength="48.2412" x="30" y="118.1426">Usuario</text><ellipse cx="57.1206" cy="52.1094" fill="#E2E2F0" rx="8" ry="8" style="stroke:#181818;stroke-width:0.5;"/><path d="M57.1206,60.1094 L57.1206,87.1094 M44.1206,68.1094 L70.1206,68.1094 M57.1206,87.1094 L44.1206,102.1094 M57.1206,87.1094 L70.1206,102.1094 " fill="none" style="stroke:#181818;stroke-width:0.5;"/><text fill="#000000" font-family="sans-serif" font-size="14" lengthAdjust="spacing" textLength="48.2412" x="30" y="2610.4082">Usuario</text><ellipse cx="57.1206" cy="2621.9844" fill="#E2E2F0" rx="8" ry="8" style="stroke:#181818;stroke-width:0.5;"/><path d="M57.1206,2629.9844 L57.1206,2656.9844 M44.1206,2637.9844 L70.1206,2637.9844 M57.1206,2656.9844 L44.1206,2671.9844 M57.1206,2656.9844 L70.1206,2671.9844 " fill="none" style="stroke:#181818;stroke-width:0.5;"/><rect fill="#E2E2F0" height="49.2188" rx="2.5" ry="2.5" style="stroke:#181818;stroke-width:0.5;" width="70.0342" x="220.9688" y="71"/><text fill="#000000" font-family="sans-serif" font-size="14" lengthAdjust="spacing" textLength="56.0342" x="227.9688" y="92.5332">Frontend</text><text fill="#000000" font-family="sans-serif" font-size="14" lengthAdjust="spacing" textLength="52.1104" x="229.9307" y="110.1426">(Next.js)</text><rect fill="#E2E2F0" height="49.2188" rx="2.5" ry="2.5" style="stroke:#181818;stroke-width:0.5;" width="70.0342" x="220.9688" y="2595.875"/><text fill="#000000" font-family="sans-serif" font-size="14" lengthAdjust="spacing" textLength="56.0342" x="227.9688" y="2617.4082">Frontend</text><text fill="#000000" font-family="sans-serif" font-size="14" lengthAdjust="spacing" textLength="52.1104" x="229.9307" y="2635.0176">(Next.js)</text><rect fill="#E2E2F0" height="49.2188" rx="2.5" ry="2.5" style="stroke:#181818;stroke-width:0.5;" width="103.4893" x="519.8994" y="71"/><text fill="#000000" font-family="sans-serif" font-size="14" lengthAdjust="spacing" textLength="89.4893" x="526.8994" y="92.5332">AuthController</text><text fill="#000000" font-family="sans-serif" font-size="14" lengthAdjust="spacing" textLength="54.4482" x="544.4199" y="110.1426">(NestJS)</text><rect fill="#E2E2F0" height="49.2188" rx="2.5" ry="2.5" style="stroke:#181818;stroke-width:0.5;" width="103.4893" x="519.8994" y="2595.875"/><text fill="#000000" font-family="sans-serif" font-size="14" lengthAdjust="spacing" textLength="89.4893" x="526.8994" y="2617.4082">AuthController</text><text fill="#000000" font-family="sans-serif" font-size="14" lengthAdjust="spacing" textLength="54.4482" x="544.4199" y="2635.0176">(NestJS)</text><rect fill="#E2E2F0" height="49.2188" rx="2.5" ry="2.5" style="stroke:#181818;stroke-width:0.5;" width="89.4824" x="807.4712" y="71"/><text fill="#000000" font-family="sans-serif" font-size="14" lengthAdjust="spacing" textLength="75.4824" x="814.4712" y="92.5332">AuthService</text><text fill="#000000" font-family="sans-serif" font-size="14" lengthAdjust="spacing" textLength="54.4482" x="824.9883" y="110.1426">(NestJS)</text><rect fill="#E2E2F0" height="49.2188" rx="2.5" ry="2.5" style="stroke:#181818;stroke-width:0.5;" width="89.4824" x="807.4712" y="2595.875"/><text fill="#000000" font-family="sans-serif" font-size="14" lengthAdjust="spacing" textLength="75.4824" x="814.4712" y="2617.4082">AuthService</text><text fill="#000000" font-family="sans-serif" font-size="14" lengthAdjust="spacing" textLength="54.4482" x="824.9883" y="2635.0176">(NestJS)</text><rect fill="#E2E2F0" height="31.6094" rx="2.5" ry="2.5" style="stroke:#181818;stroke-width:0.5;" width="104.2412" x="1023.3916" y="88.6094"/><text fill="#000000" font-family="sans-serif" font-size="14" lengthAdjust="spacing" textLength="90.2412" x="1030.3916" y="110.1426">PrismaService</text><rect fill="#E2E2F0" height="31.6094" rx="2.5" ry="2.5" style="stroke:#181818;stroke-width:0.5;" width="104.2412" x="1023.3916" y="2595.875"/><text fill="#000000" font-family="sans-serif" font-size="14" lengthAdjust="spacing" textLength="90.2412" x="1030.3916" y="2617.4082">PrismaService</text><text fill="#000000" font-family="sans-serif" font-size="14" lengthAdjust="spacing" textLength="76.2617" x="1303.6294" y="118.1426">PostgreSQL</text><path d="M1326.7603,67.6094 C1326.7603,57.6094 1344.7603,57.6094 1344.7603,57.6094 C1344.7603,57.6094 1362.7603,57.6094 1362.7603,67.6094 L1362.7603,93.6094 C1362.7603,103.6094 1344.7603,103.6094 1344.7603,103.6094 C1344.7603,103.6094 1326.7603,103.6094 1326.7603,93.6094 L1326.7603,67.6094 " fill="#E2E2F0" style="stroke:#181818;stroke-width:1.5;"/><path d="M1326.7603,67.6094 C1326.7603,77.6094 1344.7603,77.6094 1344.7603,77.6094 C1344.7603,77.6094 1362.7603,77.6094 1362.7603,67.6094 " fill="none" style="stroke:#181818;stroke-width:1.5;"/><text fill="#000000" font-family="sans-serif" font-size="14" lengthAdjust="spacing" textLength="76.2617" x="1303.6294" y="2610.4082">PostgreSQL</text><path d="M1326.7603,2623.4844 C1326.7603,2613.4844 1344.7603,2613.4844 1344.7603,2613.4844 C1344.7603,2613.4844 1362.7603,2613.4844 1362.7603,2623.4844 L1362.7603,2649.4844 C1362.7603,2659.4844 1344.7603,2659.4844 1344.7603,2659.4844 C1344.7603,2659.4844 1326.7603,2659.4844 1326.7603,2649.4844 L1326.7603,2623.4844 " fill="#E2E2F0" style="stroke:#181818;stroke-width:1.5;"/><path d="M1326.7603,2623.4844 C1326.7603,2633.4844 1344.7603,2633.4844 1344.7603,2633.4844 C1344.7603,2633.4844 1362.7603,2633.4844 1362.7603,2623.4844 " fill="none" style="stroke:#181818;stroke-width:1.5;"/><rect fill="#E2E2F0" height="31.6094" rx="2.5" ry="2.5" style="stroke:#181818;stroke-width:0.5;" width="89.4482" x="1395.8911" y="88.6094"/><text fill="#000000" font-family="sans-serif" font-size="14" lengthAdjust="spacing" textLength="75.4482" x="1402.8911" y="110.1426">JWTService</text><rect fill="#E2E2F0" height="31.6094" rx="2.5" ry="2.5" style="stroke:#181818;stroke-width:0.5;" width="89.4482" x="1395.8911" y="2595.875"/><text fill="#000000" font-family="sans-serif" font-size="14" lengthAdjust="spacing" textLength="75.4482" x="1402.8911" y="2617.4082">JWTService</text><rect fill="#FFFFFF" height="2380.9531" style="stroke:#181818;stroke-width:1;" width="10" x="250.9858" y="197.9219"/><rect fill="#FFFFFF" height="1006.2188" style="stroke:#181818;stroke-width:1;" width="10" x="566.644" y="228.2734"/><rect fill="#FFFFFF" height="507.1094" style="stroke:#181818;stroke-width:1;" width="10" x="566.644" y="1888.0078"/><rect fill="#FFFFFF" height="975.8672" style="stroke:#181818;stroke-width:1;" width="10" x="847.2124" y="258.625"/><rect fill="#EEEEEE" height="3" style="stroke:#EEEEEE;stroke-width:1;" width="1515.3394" x="0" y="152.3945"/><line style="stroke:#000000;stroke-width:1;" x1="0" x2="1515.3394" y1="152.3945" y2="152.3945"/><line style="stroke:#000000;stroke-width:1;" x1="0" x2="1515.3394" y1="155.3945" y2="155.3945"/><rect fill="#EEEEEE" height="24.3516" style="stroke:#000000;stroke-width:2;" width="101.4009" x="706.9692" y="141.2188"/><text fill="#000000" font-family="sans-serif" font-size="13" font-weight="bold" lengthAdjust="spacing" textLength="83.7891" x="712.9692" y="158.7139">Fase 1: Login</text><polygon fill="#181818" points="238.9858,193.9219,248.9858,197.9219,238.9858,201.9219,242.9858,197.9219" style="stroke:#181818;stroke-width:1;"/><line style="stroke:#181818;stroke-width:1;" x1="57.1206" x2="244.9858" y1="197.9219" y2="197.9219"/><text fill="#000000" font-family="sans-serif" font-size="13" lengthAdjust="spacing" textLength="174.8652" x="64.1206" y="193.0654">1. Ingresar email y contrase&#241;a</text><polygon fill="#181818" points="554.644,224.2734,564.644,228.2734,554.644,232.2734,558.644,228.2734" style="stroke:#181818;stroke-width:1;"/><line style="stroke:#181818;stroke-width:1;" x1="260.9858" x2="560.644" y1="228.2734" y2="228.2734"/><text fill="#000000" font-family="sans-serif" font-size="13" lengthAdjust="spacing" textLength="98.998" x="267.9858" y="223.417">POST /auth/login</text><polygon fill="#181818" points="835.2124,254.625,845.2124,258.625,835.2124,262.625,839.2124,258.625" style="stroke:#181818;stroke-width:1;"/><line style="stroke:#181818;stroke-width:1;" x1="576.644" x2="841.2124" y1="258.625" y2="258.625"/><text fill="#000000" font-family="sans-serif" font-size="13" lengthAdjust="spacing" textLength="83.8208" x="583.644" y="253.7686">login(loginDto)</text><polygon fill="#181818" points="1063.5122,284.9766,1073.5122,288.9766,1063.5122,292.9766,1067.5122,288.9766" style="stroke:#181818;stroke-width:1;"/><line style="stroke:#181818;stroke-width:1;" x1="857.2124" x2="1069.5122" y1="288.9766" y2="288.9766"/><text fill="#000000" font-family="sans-serif" font-size="13" lengthAdjust="spacing" textLength="176.3252" x="864.2124" y="284.1201">findUnique({ where: { email } })</text><polygon fill="#181818" points="1332.7603,315.3281,1342.7603,319.3281,1332.7603,323.3281,1336.7603,319.3281" style="stroke:#181818;stroke-width:1;"/><line style="stroke:#181818;stroke-width:1;" x1="1075.5122" x2="1338.7603" y1="319.3281" y2="319.3281"/><text fill="#000000" font-family="sans-serif" font-size="13" lengthAdjust="spacing" textLength="245.248" x="1082.5122" y="314.4717">SELECT * FROM users WHERE email = ?</text><polygon fill="#181818" points="1086.5122,345.6797,1076.5122,349.6797,1086.5122,353.6797,1082.5122,349.6797" style="stroke:#181818;stroke-width:1;"/><line style="stroke:#181818;stroke-width:1;stroke-dasharray:2.0,2.0;" x1="1080.5122" x2="1343.7603" y1="349.6797" y2="349.6797"/><text fill="#000000" font-family="sans-serif" font-size="13" lengthAdjust="spacing" textLength="62.1372" x="1092.5122" y="344.8232">User o null</text><polygon fill="#181818" points="868.2124,376.0313,858.2124,380.0313,868.2124,384.0313,864.2124,380.0313" style="stroke:#181818;stroke-width:1;"/><line style="stroke:#181818;stroke-width:1;stroke-dasharray:2.0,2.0;" x1="862.2124" x2="1074.5122" y1="380.0313" y2="380.0313"/><text fill="#000000" font-family="sans-serif" font-size="13" lengthAdjust="spacing" textLength="27.4473" x="874.2124" y="375.1748">User</text><path d="M10,395.0313 L70.1709,395.0313 L70.1709,403.3828 L60.1709,413.3828 L10,413.3828 L10,395.0313 " fill="#EEEEEE" style="stroke:#000000;stroke-width:1.5;"/><rect fill="none" height="832.4609" style="stroke:#000000;stroke-width:1.5;" width="1495.3394" x="10" y="395.0313"/><text fill="#000000" font-family="sans-serif" font-size="13" font-weight="bold" lengthAdjust="spacing" textLength="15.1709" x="25" y="409.5264">alt</text><text fill="#000000" font-family="sans-serif" font-size="11" font-weight="bold" lengthAdjust="spacing" textLength="127.7246" x="85.1709" y="408.4502">[Usuario no encontrado]</text><polygon fill="#181818" points="587.644,431.7344,577.644,435.7344,587.644,439.7344,583.644,435.7344" style="stroke:#181818;stroke-width:1;"/><line style="stroke:#181818;stroke-width:1;stroke-dasharray:2.0,2.0;" x1="581.644" x2="846.2124" y1="435.7344" y2="435.7344"/><text fill="#000000" font-family="sans-serif" font-size="13" lengthAdjust="spacing" textLength="174.1479" x="593.644" y="430.8779">Throw UnauthorizedException</text><polygon fill="#181818" points="271.9858,462.0859,261.9858,466.0859,271.9858,470.0859,267.9858,466.0859" style="stroke:#181818;stroke-width:1;"/><line style="stroke:#181818;stroke-width:1;stroke-dasharray:2.0,2.0;" x1="265.9858" x2="565.644" y1="466.0859" y2="466.0859"/><text fill="#000000" font-family="sans-serif" font-size="13" lengthAdjust="spacing" textLength="102.6289" x="277.9858" y="461.2295">401 Unauthorized</text><polygon fill="#181818" points="68.1206,492.4375,58.1206,496.4375,68.1206,500.4375,64.1206,496.4375" style="stroke:#181818;stroke-width:1;"/><line style="stroke:#181818;stroke-width:1;stroke-dasharray:2.0,2.0;" x1="62.1206" x2="249.9858" y1="496.4375" y2="496.4375"/><text fill="#000000" font-family="sans-serif" font-size="13" lengthAdjust="spacing" textLength="130.0698" x="74.1206" y="491.5811">Credenciales inv&#225;lidas</text><line style="stroke:#000000;stroke-width:1;stroke-dasharray:2.0,2.0;" x1="10" x2="1505.3394" y1="505.4375" y2="505.4375"/><text fill="#000000" font-family="sans-serif" font-size="11" font-weight="bold" lengthAdjust="spacing" textLength="111.23" x="15" y="516.8564">[Usuario encontrado]</text><line style="stroke:#181818;stroke-width:1;" x1="857.2124" x2="899.2124" y1="542.625" y2="542.625"/><line style="stroke:#181818;stroke-width:1;" x1="899.2124" x2="899.2124" y1="542.625" y2="555.625"/><line style="stroke:#181818;stroke-width:1;" x1="858.2124" x2="899.2124" y1="555.625" y2="555.625"/><polygon fill="#181818" points="868.2124,551.625,858.2124,555.625,868.2124,559.625,864.2124,555.625" style="stroke:#181818;stroke-width:1;"/><text fill="#000000" font-family="sans-serif" font-size="13" lengthAdjust="spacing" textLength="189.2998" x="864.2124" y="537.7686">bcrypt.compare(password, hash)</text><path d="M20,570.625 L80.1709,570.625 L80.1709,578.9766 L70.1709,588.9766 L20,588.9766 L20,570.625 " fill="#EEEEEE" style="stroke:#000000;stroke-width:1.5;"/><rect fill="none" height="649.8672" style="stroke:#000000;stroke-width:1.5;" width="1475.3394" x="20" y="570.625"/><text fill="#000000" font-family="sans-serif" font-size="13" font-weight="bold" lengthAdjust="spacing" textLength="15.1709" x="35" y="585.1201">alt</text><text fill="#000000" font-family="sans-serif" font-size="11" font-weight="bold" lengthAdjust="spacing" textLength="124.0884" x="95.1709" y="584.0439">[Contrase&#241;a incorrecta]</text><polygon fill="#181818" points="587.644,607.3281,577.644,611.3281,587.644,615.3281,583.644,611.3281" style="stroke:#181818;stroke-width:1;"/><line style="stroke:#181818;stroke-width:1;stroke-dasharray:2.0,2.0;" x1="581.644" x2="846.2124" y1="611.3281" y2="611.3281"/><text fill="#000000" font-family="sans-serif" font-size="13" lengthAdjust="spacing" textLength="174.1479" x="593.644" y="606.4717">Throw UnauthorizedException</text><polygon fill="#181818" points="271.9858,637.6797,261.9858,641.6797,271.9858,645.6797,267.9858,641.6797" style="stroke:#181818;stroke-width:1;"/><line style="stroke:#181818;stroke-width:1;stroke-dasharray:2.0,2.0;" x1="265.9858" x2="565.644" y1="641.6797" y2="641.6797"/><text fill="#000000" font-family="sans-serif" font-size="13" lengthAdjust="spacing" textLength="102.6289" x="277.9858" y="636.8232">401 Unauthorized</text><polygon fill="#181818" points="68.1206,668.0313,58.1206,672.0313,68.1206,676.0313,64.1206,672.0313" style="stroke:#181818;stroke-width:1;"/><line style="stroke:#181818;stroke-width:1;stroke-dasharray:2.0,2.0;" x1="62.1206" x2="249.9858" y1="672.0313" y2="672.0313"/><text fill="#000000" font-family="sans-serif" font-size="13" lengthAdjust="spacing" textLength="130.0698" x="74.1206" y="667.1748">Credenciales inv&#225;lidas</text><line style="stroke:#000000;stroke-width:1;stroke-dasharray:2.0,2.0;" x1="20" x2="1495.3394" y1="681.0313" y2="681.0313"/><text fill="#000000" font-family="sans-serif" font-size="11" font-weight="bold" lengthAdjust="spacing" textLength="114.313" x="25" y="692.4502">[Contrase&#241;a correcta]</text><polygon fill="#181818" points="1428.6152,714.2188,1438.6152,718.2188,1428.6152,722.2188,1432.6152,718.2188" style="stroke:#181818;stroke-width:1;"/><line style="stroke:#181818;stroke-width:1;" x1="857.2124" x2="1434.6152" y1="718.2188" y2="718.2188"/><text fill="#000000" font-family="sans-serif" font-size="13" lengthAdjust="spacing" textLength="230.4263" x="864.2124" y="713.3623">sign(payload, secret, { expiresIn: '24h' })</text><polygon fill="#181818" points="868.2124,744.5703,858.2124,748.5703,868.2124,752.5703,864.2124,748.5703" style="stroke:#181818;stroke-width:1;"/><line style="stroke:#181818;stroke-width:1;stroke-dasharray:2.0,2.0;" x1="862.2124" x2="1439.6152" y1="748.5703" y2="748.5703"/><text fill="#000000" font-family="sans-serif" font-size="13" lengthAdjust="spacing" textLength="79.4917" x="874.2124" y="743.7139">access_token</text><polygon fill="#181818" points="587.644,774.9219,577.644,778.9219,587.644,782.9219,583.644,778.9219" style="stroke:#181818;stroke-width:1;"/><line style="stroke:#181818;stroke-width:1;stroke-dasharray:2.0,2.0;" x1="581.644" x2="846.2124" y1="778.9219" y2="778.9219"/><text fill="#000000" font-family="sans-serif" font-size="13" lengthAdjust="spacing" textLength="95.3989" x="593.644" y="774.0654">{ access_token }</text><polygon fill="#181818" points="271.9858,805.2734,261.9858,809.2734,271.9858,813.2734,267.9858,809.2734" style="stroke:#181818;stroke-width:1;"/><line style="stroke:#181818;stroke-width:1;stroke-dasharray:2.0,2.0;" x1="265.9858" x2="565.644" y1="809.2734" y2="809.2734"/><text fill="#000000" font-family="sans-serif" font-size="13" lengthAdjust="spacing" textLength="95.0308" x="277.9858" y="804.417">200 OK + Token</text><line style="stroke:#181818;stroke-width:1;" x1="260.9858" x2="302.9858" y1="839.625" y2="839.625"/><line style="stroke:#181818;stroke-width:1;" x1="302.9858" x2="302.9858" y1="839.625" y2="852.625"/><line style="stroke:#181818;stroke-width:1;" x1="261.9858" x2="302.9858" y1="852.625" y2="852.625"/><polygon fill="#181818" points="271.9858,848.625,261.9858,852.625,271.9858,856.625,267.9858,852.625" style="stroke:#181818;stroke-width:1;"/><text fill="#000000" font-family="sans-serif" font-size="13" lengthAdjust="spacing" textLength="202.9536" x="267.9858" y="834.7686">localStorage.setItem('token', token)</text><polygon fill="#181818" points="554.644,878.9766,564.644,882.9766,554.644,886.9766,558.644,882.9766" style="stroke:#181818;stroke-width:1;"/><line style="stroke:#181818;stroke-width:1;" x1="260.9858" x2="560.644" y1="882.9766" y2="882.9766"/><text fill="#000000" font-family="sans-serif" font-size="13" lengthAdjust="spacing" textLength="98.2681" x="267.9858" y="878.1201">GET /auth/profile</text><polygon fill="#181818" points="835.2124,909.3281,845.2124,913.3281,835.2124,917.3281,839.2124,913.3281" style="stroke:#181818;stroke-width:1;"/><line style="stroke:#181818;stroke-width:1;" x1="576.644" x2="841.2124" y1="913.3281" y2="913.3281"/><text fill="#000000" font-family="sans-serif" font-size="13" lengthAdjust="spacing" textLength="95.3799" x="583.644" y="908.4717">getProfile(token)</text><polygon fill="#181818" points="1063.5122,939.6797,1073.5122,943.6797,1063.5122,947.6797,1067.5122,943.6797" style="stroke:#181818;stroke-width:1;"/><line style="stroke:#181818;stroke-width:1;" x1="857.2124" x2="1069.5122" y1="943.6797" y2="943.6797"/><text fill="#000000" font-family="sans-serif" font-size="13" lengthAdjust="spacing" textLength="155.3779" x="864.2124" y="938.8232">findUnique({ where: { id } })</text><polygon fill="#181818" points="1332.7603,970.0313,1342.7603,974.0313,1332.7603,978.0313,1336.7603,974.0313" style="stroke:#181818;stroke-width:1;"/><line style="stroke:#181818;stroke-width:1;" x1="1075.5122" x2="1338.7603" y1="974.0313" y2="974.0313"/><text fill="#000000" font-family="sans-serif" font-size="13" lengthAdjust="spacing" textLength="224.3008" x="1082.5122" y="969.1748">SELECT * FROM users WHERE id = ?</text><polygon fill="#181818" points="1086.5122,1000.3828,1076.5122,1004.3828,1086.5122,1008.3828,1082.5122,1004.3828" style="stroke:#181818;stroke-width:1;"/><line style="stroke:#181818;stroke-width:1;stroke-dasharray:2.0,2.0;" x1="1080.5122" x2="1343.7603" y1="1004.3828" y2="1004.3828"/><text fill="#000000" font-family="sans-serif" font-size="13" lengthAdjust="spacing" textLength="27.4473" x="1092.5122" y="999.5264">User</text><polygon fill="#181818" points="868.2124,1030.7344,858.2124,1034.7344,868.2124,1038.7344,864.2124,1034.7344" style="stroke:#181818;stroke-width:1;"/><line style="stroke:#181818;stroke-width:1;stroke-dasharray:2.0,2.0;" x1="862.2124" x2="1074.5122" y1="1034.7344" y2="1034.7344"/><text fill="#000000" font-family="sans-serif" font-size="13" lengthAdjust="spacing" textLength="115.5845" x="874.2124" y="1029.8779">User (sin password)</text><polygon fill="#181818" points="587.644,1061.0859,577.644,1065.0859,587.644,1069.0859,583.644,1065.0859" style="stroke:#181818;stroke-width:1;"/><line style="stroke:#181818;stroke-width:1;stroke-dasharray:2.0,2.0;" x1="581.644" x2="846.2124" y1="1065.0859" y2="1065.0859"/><text fill="#000000" font-family="sans-serif" font-size="13" lengthAdjust="spacing" textLength="27.4473" x="593.644" y="1060.2295">User</text><polygon fill="#181818" points="271.9858,1091.4375,261.9858,1095.4375,271.9858,1099.4375,267.9858,1095.4375" style="stroke:#181818;stroke-width:1;"/><line style="stroke:#181818;stroke-width:1;stroke-dasharray:2.0,2.0;" x1="265.9858" x2="565.644" y1="1095.4375" y2="1095.4375"/><text fill="#000000" font-family="sans-serif" font-size="13" lengthAdjust="spacing" textLength="86.3472" x="277.9858" y="1090.5811">200 OK + User</text><line style="stroke:#181818;stroke-width:1;" x1="260.9858" x2="302.9858" y1="1125.7891" y2="1125.7891"/><line style="stroke:#181818;stroke-width:1;" x1="302.9858" x2="302.9858" y1="1125.7891" y2="1138.7891"/><line style="stroke:#181818;stroke-width:1;" x1="261.9858" x2="302.9858" y1="1138.7891" y2="1138.7891"/><polygon fill="#181818" points="271.9858,1134.7891,261.9858,1138.7891,271.9858,1142.7891,267.9858,1138.7891" style="stroke:#181818;stroke-width:1;"/><text fill="#000000" font-family="sans-serif" font-size="13" lengthAdjust="spacing" textLength="281.6582" x="267.9858" y="1120.9326">localStorage.setItem('user', JSON.stringify(user))</text><line style="stroke:#181818;stroke-width:1;" x1="260.9858" x2="302.9858" y1="1169.1406" y2="1169.1406"/><line style="stroke:#181818;stroke-width:1;" x1="302.9858" x2="302.9858" y1="1169.1406" y2="1182.1406"/><line style="stroke:#181818;stroke-width:1;" x1="261.9858" x2="302.9858" y1="1182.1406" y2="1182.1406"/><polygon fill="#181818" points="271.9858,1178.1406,261.9858,1182.1406,271.9858,1186.1406,267.9858,1182.1406" style="stroke:#181818;stroke-width:1;"/><text fill="#000000" font-family="sans-serif" font-size="13" lengthAdjust="spacing" textLength="131.5234" x="267.9858" y="1164.2842">Redirect to /dashboard</text><polygon fill="#181818" points="68.1206,1208.4922,58.1206,1212.4922,68.1206,1216.4922,64.1206,1212.4922" style="stroke:#181818;stroke-width:1;"/><line style="stroke:#181818;stroke-width:1;stroke-dasharray:2.0,2.0;" x1="62.1206" x2="249.9858" y1="1212.4922" y2="1212.4922"/><text fill="#000000" font-family="sans-serif" font-size="13" lengthAdjust="spacing" textLength="128.6416" x="74.1206" y="1207.6357">2. Dashboard cargado</text><rect fill="#EEEEEE" height="3" style="stroke:#EEEEEE;stroke-width:1;" width="1515.3394" x="0" y="1255.668"/><line style="stroke:#000000;stroke-width:1;" x1="0" x2="1515.3394" y1="1255.668" y2="1255.668"/><line style="stroke:#000000;stroke-width:1;" x1="0" x2="1515.3394" y1="1258.668" y2="1258.668"/><rect fill="#EEEEEE" height="24.3516" style="stroke:#000000;stroke-width:2;" width="257.4834" x="628.928" y="1244.4922"/><text fill="#000000" font-family="sans-serif" font-size="13" font-weight="bold" lengthAdjust="spacing" textLength="239.8716" x="634.928" y="1261.9873">Fase 2: Acceso a Recursos Protegidos</text><polygon fill="#181818" points="238.9858,1297.1953,248.9858,1301.1953,238.9858,1305.1953,242.9858,1301.1953" style="stroke:#181818;stroke-width:1;"/><line style="stroke:#181818;stroke-width:1;" x1="57.1206" x2="244.9858" y1="1301.1953" y2="1301.1953"/><text fill="#000000" font-family="sans-serif" font-size="13" lengthAdjust="spacing" textLength="165.4707" x="64.1206" y="1296.3389">3. Solicitar recurso protegido</text><line style="stroke:#181818;stroke-width:1;" x1="260.9858" x2="302.9858" y1="1331.5469" y2="1331.5469"/><line style="stroke:#181818;stroke-width:1;" x1="302.9858" x2="302.9858" y1="1331.5469" y2="1344.5469"/><line style="stroke:#181818;stroke-width:1;" x1="261.9858" x2="302.9858" y1="1344.5469" y2="1344.5469"/><polygon fill="#181818" points="271.9858,1340.5469,261.9858,1344.5469,271.9858,1348.5469,267.9858,1344.5469" style="stroke:#181818;stroke-width:1;"/><text fill="#000000" font-family="sans-serif" font-size="13" lengthAdjust="spacing" textLength="176.3379" x="267.9858" y="1326.6904">Obtener token de localStorage</text><polygon fill="#181818" points="559.644,1370.8984,569.644,1374.8984,559.644,1378.8984,563.644,1374.8984" style="stroke:#181818;stroke-width:1;"/><line style="stroke:#181818;stroke-width:1;" x1="260.9858" x2="565.644" y1="1374.8984" y2="1374.8984"/><text fill="#000000" font-family="sans-serif" font-size="13" lengthAdjust="spacing" textLength="263.0151" x="267.9858" y="1370.042">GET /resource (Authorization: Bearer {token})</text><polygon fill="#181818" points="1428.6152,1401.25,1438.6152,1405.25,1428.6152,1409.25,1432.6152,1405.25" style="stroke:#181818;stroke-width:1;"/><line style="stroke:#181818;stroke-width:1;" x1="571.644" x2="1434.6152" y1="1405.25" y2="1405.25"/><text fill="#000000" font-family="sans-serif" font-size="13" lengthAdjust="spacing" textLength="114.1436" x="578.644" y="1400.3936">verify(token, secret)</text><path d="M20,1420.25 L80.1709,1420.25 L80.1709,1428.6016 L70.1709,1438.6016 L20,1438.6016 L20,1420.25 " fill="#EEEEEE" style="stroke:#000000;stroke-width:1.5;"/><rect fill="none" height="363.7031" style="stroke:#000000;stroke-width:1.5;" width="1475.3394" x="20" y="1420.25"/><text fill="#000000" font-family="sans-serif" font-size="13" font-weight="bold" lengthAdjust="spacing" textLength="15.1709" x="35" y="1434.7451">alt</text><text fill="#000000" font-family="sans-serif" font-size="11" font-weight="bold" lengthAdjust="spacing" textLength="143.0161" x="95.1709" y="1433.6689">[Token inv&#225;lido o expirado]</text><polygon fill="#181818" points="582.644,1456.9531,572.644,1460.9531,582.644,1464.9531,578.644,1460.9531" style="stroke:#181818;stroke-width:1;"/><line style="stroke:#181818;stroke-width:1;stroke-dasharray:2.0,2.0;" x1="576.644" x2="1439.6152" y1="1460.9531" y2="1460.9531"/><text fill="#000000" font-family="sans-serif" font-size="13" lengthAdjust="spacing" textLength="28.8882" x="588.644" y="1456.0967">Error</text><polygon fill="#181818" points="271.9858,1487.3047,261.9858,1491.3047,271.9858,1495.3047,267.9858,1491.3047" style="stroke:#181818;stroke-width:1;"/><line style="stroke:#181818;stroke-width:1;stroke-dasharray:2.0,2.0;" x1="265.9858" x2="570.644" y1="1491.3047" y2="1491.3047"/><text fill="#000000" font-family="sans-serif" font-size="13" lengthAdjust="spacing" textLength="102.6289" x="277.9858" y="1486.4482">401 Unauthorized</text><line style="stroke:#181818;stroke-width:1;" x1="260.9858" x2="302.9858" y1="1521.6563" y2="1521.6563"/><line style="stroke:#181818;stroke-width:1;" x1="302.9858" x2="302.9858" y1="1521.6563" y2="1534.6563"/><line style="stroke:#181818;stroke-width:1;" x1="261.9858" x2="302.9858" y1="1534.6563" y2="1534.6563"/><polygon fill="#181818" points="271.9858,1530.6563,261.9858,1534.6563,271.9858,1538.6563,267.9858,1534.6563" style="stroke:#181818;stroke-width:1;"/><text fill="#000000" font-family="sans-serif" font-size="13" lengthAdjust="spacing" textLength="112.7153" x="267.9858" y="1516.7998">localStorage.clear()</text><line style="stroke:#181818;stroke-width:1;" x1="260.9858" x2="302.9858" y1="1565.0078" y2="1565.0078"/><line style="stroke:#181818;stroke-width:1;" x1="302.9858" x2="302.9858" y1="1565.0078" y2="1578.0078"/><line style="stroke:#181818;stroke-width:1;" x1="261.9858" x2="302.9858" y1="1578.0078" y2="1578.0078"/><polygon fill="#181818" points="271.9858,1574.0078,261.9858,1578.0078,271.9858,1582.0078,267.9858,1578.0078" style="stroke:#181818;stroke-width:1;"/><text fill="#000000" font-family="sans-serif" font-size="13" lengthAdjust="spacing" textLength="97.5508" x="267.9858" y="1560.1514">Redirect to /login</text><polygon fill="#181818" points="68.1206,1604.3594,58.1206,1608.3594,68.1206,1612.3594,64.1206,1608.3594" style="stroke:#181818;stroke-width:1;"/><line style="stroke:#181818;stroke-width:1;stroke-dasharray:2.0,2.0;" x1="62.1206" x2="249.9858" y1="1608.3594" y2="1608.3594"/><text fill="#000000" font-family="sans-serif" font-size="13" lengthAdjust="spacing" textLength="93.228" x="74.1206" y="1603.5029">Sesi&#243;n expirada</text><line style="stroke:#000000;stroke-width:1;stroke-dasharray:2.0,2.0;" x1="20" x2="1495.3394" y1="1617.3594" y2="1617.3594"/><text fill="#000000" font-family="sans-serif" font-size="11" font-weight="bold" lengthAdjust="spacing" textLength="74.5615" x="25" y="1628.7783">[Token v&#225;lido]</text><polygon fill="#181818" points="582.644,1650.5469,572.644,1654.5469,582.644,1658.5469,578.644,1654.5469" style="stroke:#181818;stroke-width:1;"/><line style="stroke:#181818;stroke-width:1;stroke-dasharray:2.0,2.0;" x1="576.644" x2="1439.6152" y1="1654.5469" y2="1654.5469"/><text fill="#000000" font-family="sans-serif" font-size="13" lengthAdjust="spacing" textLength="123.5889" x="588.644" y="1649.6904">Payload decodificado</text><polygon fill="#181818" points="840.2124,1680.8984,850.2124,1684.8984,840.2124,1688.8984,844.2124,1684.8984" style="stroke:#181818;stroke-width:1;"/><line style="stroke:#181818;stroke-width:1;" x1="571.644" x2="846.2124" y1="1684.8984" y2="1684.8984"/><text fill="#000000" font-family="sans-serif" font-size="13" lengthAdjust="spacing" textLength="102.5972" x="578.644" y="1680.042">Procesar solicitud</text><polygon fill="#181818" points="582.644,1711.25,572.644,1715.25,582.644,1719.25,578.644,1715.25" style="stroke:#181818;stroke-width:1;"/><line style="stroke:#181818;stroke-width:1;stroke-dasharray:2.0,2.0;" x1="576.644" x2="851.2124" y1="1715.25" y2="1715.25"/><text fill="#000000" font-family="sans-serif" font-size="13" lengthAdjust="spacing" textLength="58.5381" x="588.644" y="1710.3936">Resultado</text><polygon fill="#181818" points="271.9858,1741.6016,261.9858,1745.6016,271.9858,1749.6016,267.9858,1745.6016" style="stroke:#181818;stroke-width:1;"/><line style="stroke:#181818;stroke-width:1;stroke-dasharray:2.0,2.0;" x1="265.9858" x2="570.644" y1="1745.6016" y2="1745.6016"/><text fill="#000000" font-family="sans-serif" font-size="13" lengthAdjust="spacing" textLength="92.8599" x="277.9858" y="1740.7451">200 OK + Datos</text><polygon fill="#181818" points="68.1206,1771.9531,58.1206,1775.9531,68.1206,1779.9531,64.1206,1775.9531" style="stroke:#181818;stroke-width:1;"/><line style="stroke:#181818;stroke-width:1;stroke-dasharray:2.0,2.0;" x1="62.1206" x2="249.9858" y1="1775.9531" y2="1775.9531"/><text fill="#000000" font-family="sans-serif" font-size="13" lengthAdjust="spacing" textLength="120.6626" x="74.1206" y="1771.0967">4. Recurso mostrado</text><rect fill="#EEEEEE" height="3" style="stroke:#EEEEEE;stroke-width:1;" width="1515.3394" x="0" y="1812.1289"/><line style="stroke:#000000;stroke-width:1;" x1="0" x2="1515.3394" y1="1812.1289" y2="1812.1289"/><line style="stroke:#000000;stroke-width:1;" x1="0" x2="1515.3394" y1="1815.1289" y2="1815.1289"/><rect fill="#EEEEEE" height="24.3516" style="stroke:#000000;stroke-width:2;" width="197.5171" x="658.9111" y="1800.9531"/><text fill="#000000" font-family="sans-serif" font-size="13" font-weight="bold" lengthAdjust="spacing" textLength="179.9053" x="664.9111" y="1818.4482">Fase 3: Verificaci&#243;n de Roles</text><polygon fill="#181818" points="238.9858,1853.6563,248.9858,1857.6563,238.9858,1861.6563,242.9858,1857.6563" style="stroke:#181818;stroke-width:1;"/><line style="stroke:#181818;stroke-width:1;" x1="57.1206" x2="244.9858" y1="1857.6563" y2="1857.6563"/><text fill="#000000" font-family="sans-serif" font-size="13" lengthAdjust="spacing" textLength="164.0361" x="64.1206" y="1852.7998">5. Intentar acci&#243;n restringida</text><polygon fill="#181818" points="554.644,1884.0078,564.644,1888.0078,554.644,1892.0078,558.644,1888.0078" style="stroke:#181818;stroke-width:1;"/><line style="stroke:#181818;stroke-width:1;" x1="260.9858" x2="560.644" y1="1888.0078" y2="1888.0078"/><text fill="#000000" font-family="sans-serif" font-size="13" lengthAdjust="spacing" textLength="130.0698" x="267.9858" y="1883.1514">DELETE /products/{id}</text><line style="stroke:#181818;stroke-width:1;" x1="576.644" x2="618.644" y1="1918.3594" y2="1918.3594"/><line style="stroke:#181818;stroke-width:1;" x1="618.644" x2="618.644" y1="1918.3594" y2="1931.3594"/><line style="stroke:#181818;stroke-width:1;" x1="577.644" x2="618.644" y1="1931.3594" y2="1931.3594"/><polygon fill="#181818" points="587.644,1927.3594,577.644,1931.3594,587.644,1935.3594,583.644,1931.3594" style="stroke:#181818;stroke-width:1;"/><text fill="#000000" font-family="sans-serif" font-size="13" lengthAdjust="spacing" textLength="246.5684" x="583.644" y="1913.5029">@UseGuards(JwtAuthGuard, RolesGuard)</text><line style="stroke:#181818;stroke-width:1;" x1="576.644" x2="618.644" y1="1961.7109" y2="1961.7109"/><line style="stroke:#181818;stroke-width:1;" x1="618.644" x2="618.644" y1="1961.7109" y2="1974.7109"/><line style="stroke:#181818;stroke-width:1;" x1="577.644" x2="618.644" y1="1974.7109" y2="1974.7109"/><polygon fill="#181818" points="587.644,1970.7109,577.644,1974.7109,587.644,1978.7109,583.644,1974.7109" style="stroke:#181818;stroke-width:1;"/><text fill="#000000" font-family="sans-serif" font-size="13" lengthAdjust="spacing" textLength="101.9434" x="583.644" y="1956.8545">@Roles('ADMIN')</text><polygon fill="#181818" points="1428.6152,2001.0625,1438.6152,2005.0625,1428.6152,2009.0625,1432.6152,2005.0625" style="stroke:#181818;stroke-width:1;"/><line style="stroke:#181818;stroke-width:1;" x1="576.644" x2="1434.6152" y1="2005.0625" y2="2005.0625"/><text fill="#000000" font-family="sans-serif" font-size="13" lengthAdjust="spacing" textLength="71.519" x="583.644" y="2000.2061">verify(token)</text><polygon fill="#181818" points="587.644,2031.4141,577.644,2035.4141,587.644,2039.4141,583.644,2035.4141" style="stroke:#181818;stroke-width:1;"/><line style="stroke:#181818;stroke-width:1;stroke-dasharray:2.0,2.0;" x1="581.644" x2="1439.6152" y1="2035.4141" y2="2035.4141"/><text fill="#000000" font-family="sans-serif" font-size="13" lengthAdjust="spacing" textLength="154.6479" x="593.644" y="2030.5576">Payload { sub, email, role }</text><path d="M20,2050.4141 L80.1709,2050.4141 L80.1709,2058.7656 L70.1709,2068.7656 L20,2068.7656 L20,2050.4141 " fill="#EEEEEE" style="stroke:#000000;stroke-width:1.5;"/><rect fill="none" height="337.7031" style="stroke:#000000;stroke-width:1.5;" width="1375.8911" x="20" y="2050.4141"/><text fill="#000000" font-family="sans-serif" font-size="13" font-weight="bold" lengthAdjust="spacing" textLength="15.1709" x="35" y="2064.9092">alt</text><text fill="#000000" font-family="sans-serif" font-size="11" font-weight="bold" lengthAdjust="spacing" textLength="175.9893" x="95.1709" y="2063.833">[Rol no autorizado (ej: CASHIER)]</text><polygon fill="#181818" points="271.9858,2087.1172,261.9858,2091.1172,271.9858,2095.1172,267.9858,2091.1172" style="stroke:#181818;stroke-width:1;"/><line style="stroke:#181818;stroke-width:1;stroke-dasharray:2.0,2.0;" x1="265.9858" x2="565.644" y1="2091.1172" y2="2091.1172"/><text fill="#000000" font-family="sans-serif" font-size="13" lengthAdjust="spacing" textLength="83.8398" x="277.9858" y="2086.2607">403 Forbidden</text><polygon fill="#181818" points="68.1206,2117.4688,58.1206,2121.4688,68.1206,2125.4688,64.1206,2121.4688" style="stroke:#181818;stroke-width:1;"/><line style="stroke:#181818;stroke-width:1;stroke-dasharray:2.0,2.0;" x1="62.1206" x2="249.9858" y1="2121.4688" y2="2121.4688"/><text fill="#000000" font-family="sans-serif" font-size="13" lengthAdjust="spacing" textLength="104.0825" x="74.1206" y="2116.6123">Acceso denegado</text><line style="stroke:#000000;stroke-width:1;stroke-dasharray:2.0,2.0;" x1="20" x2="1395.8911" y1="2130.4688" y2="2130.4688"/><text fill="#000000" font-family="sans-serif" font-size="11" font-weight="bold" lengthAdjust="spacing" textLength="130.147" x="25" y="2141.8877">[Rol autorizado (ADMIN)]</text><polygon fill="#181818" points="840.2124,2163.6563,850.2124,2167.6563,840.2124,2171.6563,844.2124,2167.6563" style="stroke:#181818;stroke-width:1;"/><line style="stroke:#181818;stroke-width:1;" x1="576.644" x2="846.2124" y1="2167.6563" y2="2167.6563"/><text fill="#000000" font-family="sans-serif" font-size="13" lengthAdjust="spacing" textLength="98.998" x="583.644" y="2162.7998">deleteProduct(id)</text><polygon fill="#181818" points="1063.5122,2194.0078,1073.5122,2198.0078,1063.5122,2202.0078,1067.5122,2198.0078" style="stroke:#181818;stroke-width:1;"/><line style="stroke:#181818;stroke-width:1;" x1="852.2124" x2="1069.5122" y1="2198.0078" y2="2198.0078"/><text fill="#000000" font-family="sans-serif" font-size="13" lengthAdjust="spacing" textLength="44.0781" x="859.2124" y="2193.1514">delete()</text><polygon fill="#181818" points="1332.7603,2224.3594,1342.7603,2228.3594,1332.7603,2232.3594,1336.7603,2228.3594" style="stroke:#181818;stroke-width:1;"/><line style="stroke:#181818;stroke-width:1;" x1="1075.5122" x2="1338.7603" y1="2228.3594" y2="2228.3594"/><text fill="#000000" font-family="sans-serif" font-size="13" lengthAdjust="spacing" textLength="145.9263" x="1082.5122" y="2223.5029">DELETE FROM products</text><polygon fill="#181818" points="1086.5122,2254.7109,1076.5122,2258.7109,1086.5122,2262.7109,1082.5122,2258.7109" style="stroke:#181818;stroke-width:1;"/><line style="stroke:#181818;stroke-width:1;stroke-dasharray:2.0,2.0;" x1="1080.5122" x2="1343.7603" y1="2258.7109" y2="2258.7109"/><text fill="#000000" font-family="sans-serif" font-size="13" lengthAdjust="spacing" textLength="18.7827" x="1092.5122" y="2253.8545">OK</text><polygon fill="#181818" points="863.2124,2285.0625,853.2124,2289.0625,863.2124,2293.0625,859.2124,2289.0625" style="stroke:#181818;stroke-width:1;"/><line style="stroke:#181818;stroke-width:1;stroke-dasharray:2.0,2.0;" x1="857.2124" x2="1074.5122" y1="2289.0625" y2="2289.0625"/><text fill="#000000" font-family="sans-serif" font-size="13" lengthAdjust="spacing" textLength="111.2871" x="869.2124" y="2284.2061">Producto eliminado</text><polygon fill="#181818" points="587.644,2315.4141,577.644,2319.4141,587.644,2323.4141,583.644,2319.4141" style="stroke:#181818;stroke-width:1;"/><line style="stroke:#181818;stroke-width:1;stroke-dasharray:2.0,2.0;" x1="581.644" x2="851.2124" y1="2319.4141" y2="2319.4141"/><text fill="#000000" font-family="sans-serif" font-size="13" lengthAdjust="spacing" textLength="76.5845" x="593.644" y="2314.5576">Confirmaci&#243;n</text><polygon fill="#181818" points="271.9858,2345.7656,261.9858,2349.7656,271.9858,2353.7656,267.9858,2349.7656" style="stroke:#181818;stroke-width:1;"/><line style="stroke:#181818;stroke-width:1;stroke-dasharray:2.0,2.0;" x1="265.9858" x2="565.644" y1="2349.7656" y2="2349.7656"/><text fill="#000000" font-family="sans-serif" font-size="13" lengthAdjust="spacing" textLength="44.0845" x="277.9858" y="2344.9092">200 OK</text><polygon fill="#181818" points="68.1206,2376.1172,58.1206,2380.1172,68.1206,2384.1172,64.1206,2380.1172" style="stroke:#181818;stroke-width:1;"/><line style="stroke:#181818;stroke-width:1;stroke-dasharray:2.0,2.0;" x1="62.1206" x2="249.9858" y1="2380.1172" y2="2380.1172"/><text fill="#000000" font-family="sans-serif" font-size="13" lengthAdjust="spacing" textLength="111.2871" x="74.1206" y="2375.2607">Producto eliminado</text><rect fill="#EEEEEE" height="3" style="stroke:#EEEEEE;stroke-width:1;" width="1515.3394" x="0" y="2416.293"/><line style="stroke:#000000;stroke-width:1;" x1="0" x2="1515.3394" y1="2416.293" y2="2416.293"/><line style="stroke:#000000;stroke-width:1;" x1="0" x2="1515.3394" y1="2419.293" y2="2419.293"/><rect fill="#EEEEEE" height="24.3516" style="stroke:#000000;stroke-width:2;" width="110.0591" x="702.6401" y="2405.1172"/><text fill="#000000" font-family="sans-serif" font-size="13" font-weight="bold" lengthAdjust="spacing" textLength="92.4473" x="708.6401" y="2422.6123">Fase 4: Logout</text><polygon fill="#181818" points="238.9858,2457.8203,248.9858,2461.8203,238.9858,2465.8203,242.9858,2461.8203" style="stroke:#181818;stroke-width:1;"/><line style="stroke:#181818;stroke-width:1;" x1="57.1206" x2="244.9858" y1="2461.8203" y2="2461.8203"/><text fill="#000000" font-family="sans-serif" font-size="13" lengthAdjust="spacing" textLength="92.479" x="64.1206" y="2456.9639">6. Cerrar sesi&#243;n</text><line style="stroke:#181818;stroke-width:1;" x1="260.9858" x2="302.9858" y1="2492.1719" y2="2492.1719"/><line style="stroke:#181818;stroke-width:1;" x1="302.9858" x2="302.9858" y1="2492.1719" y2="2505.1719"/><line style="stroke:#181818;stroke-width:1;" x1="261.9858" x2="302.9858" y1="2505.1719" y2="2505.1719"/><polygon fill="#181818" points="271.9858,2501.1719,261.9858,2505.1719,271.9858,2509.1719,267.9858,2505.1719" style="stroke:#181818;stroke-width:1;"/><text fill="#000000" font-family="sans-serif" font-size="13" lengthAdjust="spacing" textLength="112.7153" x="267.9858" y="2487.3154">localStorage.clear()</text><line style="stroke:#181818;stroke-width:1;" x1="260.9858" x2="302.9858" y1="2535.5234" y2="2535.5234"/><line style="stroke:#181818;stroke-width:1;" x1="302.9858" x2="302.9858" y1="2535.5234" y2="2548.5234"/><line style="stroke:#181818;stroke-width:1;" x1="261.9858" x2="302.9858" y1="2548.5234" y2="2548.5234"/><polygon fill="#181818" points="271.9858,2544.5234,261.9858,2548.5234,271.9858,2552.5234,267.9858,2548.5234" style="stroke:#181818;stroke-width:1;"/><text fill="#000000" font-family="sans-serif" font-size="13" lengthAdjust="spacing" textLength="97.5508" x="267.9858" y="2530.667">Redirect to /login</text><polygon fill="#181818" points="68.1206,2574.875,58.1206,2578.875,68.1206,2582.875,64.1206,2578.875" style="stroke:#181818;stroke-width:1;"/><line style="stroke:#181818;stroke-width:1;stroke-dasharray:2.0,2.0;" x1="62.1206" x2="254.9858" y1="2578.875" y2="2578.875"/><text fill="#000000" font-family="sans-serif" font-size="13" lengthAdjust="spacing" textLength="87.439" x="74.1206" y="2574.0186">Sesi&#243;n cerrada</text><!--SRC=[dLVTKkis4BxNK-pG2-msXD_smZES5f9m3XmEq0HwRZhJKUGb4JXMAidybE5X-WYTFW8lrfLa9p4u50xCE8xzhRIx-lRRZRcM-PHhFe4X5zSZhOeyxQXCQVZkeEV-cPaXnZnFRxMq5dEuv9b1ngoq6K9NyX41EAG80nG5va9oM8E3hBXIxk5UGJPM2YxaqxyvOrnOsc7bmXHSIxK2tC25GSre7qB9ASyjh1nebPDP-diUdU2TRL-Ps2EhvtKqRJ7kq0kjiWorjp7sQ11CEbPdB-43r3TIu3Fiu4RKeMTQcWalmHuIdh2KMpxa1WcYZ1rf7FnwxDztz-ih77qzNpIdhupjxiA1izrCu5YDP0wxkypb0DO-p29COBCDXpcjRBW6d72PmJq85oMPFlt3NIBb3RSuJmghxjn2Bku4pau7vx3EAUBrp6qrj_9vOUxgq1Hv0XuH-MlNgdYETNbXT778a804BcMUNkJopmAZ1xWTeyO47af77-4nPW7eJBhx2GnwnxtEENmF1_tJBr1Gj0Q-VkhrUwN9BlpCklkmjh23Juc2lCYosMALgvuoZ6SMIY91he2uv_EJAWRqvnsUPU9yhDKjNEGk5qhBlp3jtGcSMgboZmwPg9t0piPcpS3ZvZach7CZWOx6rFC-GmColtdwEvCfDmofJcR-DJbN1ZCK-dvgsq9DY3eOJRanjqgdBQewCuuzt5zSk9qv0sWheRH6ORb__VwOtnFtEsDtS1__eiFDxdvmLP60aQESOh_F5AVG3GgDjkKeTJULL0M7UGAhMplZLSUjofuCvvpWGg0nVrXrZVFmbcJceOQ6nzVIiRMn0QUVuGSuRrvviUhcLfaIF1kGrl4HjWtQGukJQDLljze2_natBX4S_DYhwdQgrQNCy9c7PSmZj6VXVVHioJULgqn3hLP6RwrPidC5Mvar5EwB9HSh5o93gbVnF5voHhLbNZkN6l2RZiN5HgToD3WzQHkhPJwIb_UHUnh7_xDW7rFfI4r72kl4_F5GSVrgoMoreLlXG70zgZJ1QRZNyHHhqhlmDQXsrK2s4jXpD5R0oGzHQADSXr8MHpAbsyQ-ijs6WSgeGLbgB3fOmRGoOirHdWxfarOAvK9jVJ6FR0bzgMfLeGL2j5Tg2NVIay0-aivfUF2h4VrcRSWBmGrgbtt_iXA2E8Yzhy2Pp2Zg3buTgWHMSX1yw6cjz3Tg-rBAY8nyZsBsHaA4fhk420CqRYQgOk2XOOGOomWRmZeB4ac785GgBscoAc4rOI0M23ywc73MHThG4_jeYipMxPjBhCkjCilYs6bNx8C9JKF-E3oFAvvk9_2REzHg2dG4wYlNCHeP-gERVDpKIEwJJ7iBubAeIqhJIxfrIQdEU-2qCYs4DUiFCdrSDki4arzetu_KcbCJ7TrQHr3_hHKSy_VnSnF_AbhTwtuvF5bzZROnQpwp1p35i1L6dXRGl8hKUZopQMatmX0XVPqGjoEyelQwD_XqsEl7oscy3GTA3sMQubAUbHf12FHQusdcDbpSpGSLloHIYXbQF0k9ZMIfri-wIm2LPL5l8kNH-1PI7GzhQ1gddrbJkoWtfaBFv4JcpRCTpHYNKa_AdnYlSdbPZXhsUIx5TUtTySExAcmpXtzgGmUrTWKOgfozGrpUB2olY8fmkrEnB4Om-wNm7m00]--></g></svg>