<svg xmlns="http://www.w3.org/2000/svg" xmlns:xlink="http://www.w3.org/1999/xlink" contentStyleType="text/css" height="920px" preserveAspectRatio="none" style="width:1201px;height:920px;background:#FEFEFE;" version="1.1" viewBox="0 0 1201 920" width="1201px" zoomAndPan="magnify"><title>Diagrama de Casos de Uso - M&#243;dulo de Categor&#237;as</title><defs/><g><rect fill="#FEFEFE" height="920" style="stroke:none;stroke-width:1;" width="1201" x="0" y="0"/><!--cluster Sistema de Gesti?n de Inventario y Punto de Venta--><g id="cluster_Sistema de Gesti&#243;n de Inventario y Punto de Venta"><rect fill="none" height="350" rx="2.5" ry="2.5" style="stroke:#181818;stroke-width:1;" width="1056" x="139" y="138.1094"/><text fill="#000000" font-family="sans-serif" font-size="14" font-weight="bold" lengthAdjust="spacing" textLength="338.4131" x="497.7935" y="154.6426">Sistema de Gesti&#243;n de Inventario y Punto de Venta</text></g><!--cluster M?dulo de Categor?as--><g id="cluster_M&#243;dulo de Categor&#237;as"><path d="M165.5,182.1094 L312.7344,182.1094 A3.75,3.75 0 0 1 315.2344,184.6094 L322.2344,205.7188 L1168.5,205.7188 A2.5,2.5 0 0 1 1171,208.2188 L1171,461.6094 A2.5,2.5 0 0 1 1168.5,464.1094 L165.5,464.1094 A2.5,2.5 0 0 1 163,461.6094 L163,184.6094 A2.5,2.5 0 0 1 165.5,182.1094 " fill="none" style="stroke:#000000;stroke-width:1.5;"/><line style="stroke:#000000;stroke-width:1.5;" x1="163" x2="322.2344" y1="205.7188" y2="205.7188"/><text fill="#000000" font-family="sans-serif" font-size="14" font-weight="bold" lengthAdjust="spacing" textLength="146.2344" x="167" y="198.6426">M&#243;dulo de Categor&#237;as</text></g><g id="elem_UC20"><ellipse cx="669.8599" cy="244.2739" fill="#E8F5E9" rx="103.3599" ry="25.6645" style="stroke:#388E3C;stroke-width:0.5;"/><text fill="#000000" font-family="sans-serif" font-size="14" font-style="italic" lengthAdjust="spacing" textLength="63.793" x="631.8659" y="237.4057">&#171;Primary&#187;</text><text fill="#000000" font-family="sans-serif" font-size="14" lengthAdjust="spacing" textLength="143.9512" x="591.7868" y="255.0151">UC20: Crear Categor&#237;a</text></g><g id="elem_UC21"><ellipse cx="669.8244" cy="330.2642" fill="#E8F5E9" rx="104.3244" ry="25.6549" style="stroke:#388E3C;stroke-width:0.5;"/><text fill="#000000" font-family="sans-serif" font-size="14" font-style="italic" lengthAdjust="spacing" textLength="63.793" x="631.8051" y="323.374">&#171;Primary&#187;</text><text fill="#000000" font-family="sans-serif" font-size="14" lengthAdjust="spacing" textLength="145.5166" x="590.9432" y="340.9834">UC21: Editar Categor&#237;a</text></g><g id="elem_UC22"><ellipse cx="301.4699" cy="244.1912" fill="#E8F5E9" rx="112.9699" ry="25.5818" style="stroke:#388E3C;stroke-width:0.5;"/><text fill="#000000" font-family="sans-serif" font-size="14" font-style="italic" lengthAdjust="spacing" textLength="63.793" x="263.2231" y="237.1285">&#171;Primary&#187;</text><text fill="#000000" font-family="sans-serif" font-size="14" lengthAdjust="spacing" textLength="159.5098" x="215.3647" y="254.7379">UC22: Eliminar Categor&#237;a</text></g><g id="elem_UC23"><ellipse cx="1036.4677" cy="369.2029" fill="#E8F5E9" rx="118.4677" ry="26.0935" style="stroke:#388E3C;stroke-width:0.5;"/><text fill="#000000" font-family="sans-serif" font-size="14" font-style="italic" lengthAdjust="spacing" textLength="63.793" x="998.495" y="361.5032">&#171;Primary&#187;</text><text fill="#000000" font-family="sans-serif" font-size="14" lengthAdjust="spacing" textLength="175.8613" x="942.4608" y="379.1126">UC23: Consultar Categor&#237;as</text></g><g id="elem_UC24"><ellipse cx="669.7571" cy="419.1608" fill="#E8F5E9" rx="130.7571" ry="28.5514" style="stroke:#388E3C;stroke-width:0.5;"/><text fill="#000000" font-family="sans-serif" font-size="14" font-style="italic" lengthAdjust="spacing" textLength="63.793" x="632.8635" y="408.8073">&#171;Primary&#187;</text><text fill="#000000" font-family="sans-serif" font-size="14" lengthAdjust="spacing" textLength="221.7783" x="553.8709" y="426.4167">UC24: Ver Productos por Categor&#237;a</text></g><g id="elem_UC25"><ellipse cx="301.4928" cy="332.0079" fill="#E8F5E9" rx="122.4928" ry="26.8986" style="stroke:#388E3C;stroke-width:0.5;"/><text fill="#000000" font-family="sans-serif" font-size="14" font-style="italic" lengthAdjust="spacing" textLength="63.793" x="263.9486" y="323.429">&#171;Primary&#187;</text><text fill="#000000" font-family="sans-serif" font-size="14" lengthAdjust="spacing" textLength="192.2061" x="199.742" y="341.0384">UC25: Reorganizar Categor&#237;as</text></g><!--entity Admin--><g id="elem_Admin"><ellipse cx="49.1826" cy="417.6094" fill="#E3F2FD" rx="8" ry="8" style="stroke:#424242;stroke-width:0.5;"/><path d="M49.1826,425.6094 L49.1826,452.6094 M36.1826,433.6094 L62.1826,433.6094 M49.1826,452.6094 L36.1826,467.6094 M49.1826,452.6094 L62.1826,467.6094 " fill="none" style="stroke:#424242;stroke-width:0.5;"/><text fill="#000000" font-family="sans-serif" font-size="14" lengthAdjust="spacing" textLength="86.3652" x="6" y="483.6426">Administrador</text></g><!--entity Cajero--><g id="elem_Cajero"><ellipse cx="301.6206" cy="615.6094" fill="#FFF3E0" rx="8" ry="8" style="stroke:#424242;stroke-width:0.5;"/><path d="M301.6206,623.6094 L301.6206,650.6094 M288.6206,631.6094 L314.6206,631.6094 M301.6206,650.6094 L288.6206,665.6094 M301.6206,650.6094 L314.6206,665.6094 " fill="none" style="stroke:#424242;stroke-width:0.5;"/><text fill="#000000" font-family="sans-serif" font-size="14" lengthAdjust="spacing" textLength="41.2412" x="281" y="681.6426">Cajero</text></g><!--entity InvUser--><g id="elem_InvUser"><ellipse cx="301.5376" cy="52.6094" fill="#E8F5E9" rx="8" ry="8" style="stroke:#424242;stroke-width:0.5;"/><path d="M301.5376,60.6094 L301.5376,87.6094 M288.5376,68.6094 L314.5376,68.6094 M301.5376,87.6094 L288.5376,102.6094 M301.5376,87.6094 L314.5376,102.6094 " fill="none" style="stroke:#424242;stroke-width:0.5;"/><text fill="#000000" font-family="sans-serif" font-size="14" lengthAdjust="spacing" textLength="133.0752" x="235" y="118.6426">Usuario de Inventario</text></g><!--link UC20 to UC23--><g id="link_UC20_UC23"><path d="M733.23,264.4494 C754.72,271.5394 778.94,279.5994 801,287.1094 C859.59,307.0394 920.5227,328.3906 967.7327,345.0706 " fill="none" id="UC20-to-UC23" style="stroke:#181818;stroke-width:1;stroke-dasharray:7.0,7.0;"/><polygon fill="#181818" points="973.39,347.0694,966.2366,340.2997,968.6756,345.4037,963.5715,347.8427,973.39,347.0694" style="stroke:#181818;stroke-width:1;"/><text fill="#000000" font-family="sans-serif" font-size="13" lengthAdjust="spacing" textLength="55.6563" x="832" y="294.6045">&#171;include&#187;</text></g><!--link UC21 to UC23--><g id="link_UC21_UC23"><path d="M766.29,340.2994 C816.39,345.6594 871.9741,351.611 923.5641,357.131 " fill="none" id="UC21-to-UC23" style="stroke:#181818;stroke-width:1;stroke-dasharray:7.0,7.0;"/><polygon fill="#181818" points="929.53,357.7694,921.0066,352.8346,924.5584,357.2374,920.1555,360.7892,929.53,357.7694" style="stroke:#181818;stroke-width:1;"/><text fill="#000000" font-family="sans-serif" font-size="13" lengthAdjust="spacing" textLength="55.6563" x="832" y="344.6045">&#171;include&#187;</text></g><!--link UC24 to UC23--><g id="link_UC24_UC23"><path d="M781.35,403.9694 C830.38,397.2394 881.7356,390.1944 929.5056,383.6444 " fill="none" id="UC24-to-UC23" style="stroke:#181818;stroke-width:1;stroke-dasharray:7.0,7.0;"/><polygon fill="#181818" points="935.45,382.8294,925.9901,380.0891,930.4963,383.5086,927.0768,388.0149,935.45,382.8294" style="stroke:#181818;stroke-width:1;"/><text fill="#000000" font-family="sans-serif" font-size="13" lengthAdjust="spacing" textLength="55.6563" x="832" y="386.6045">&#171;include&#187;</text></g><!--link UC25 to UC21--><g id="link_UC25_UC21"><path d="M424.03,331.4394 C469.77,331.1994 515.3101,330.9421 559.2801,330.7021 " fill="none" id="UC25-to-UC21" style="stroke:#181818;stroke-width:1;stroke-dasharray:7.0,7.0;"/><polygon fill="#181818" points="565.28,330.6694,556.2583,326.7186,560.2801,330.6967,556.302,334.7184,565.28,330.6694" style="stroke:#181818;stroke-width:1;"/><text fill="#000000" font-family="sans-serif" font-size="13" lengthAdjust="spacing" textLength="53.4917" x="455" y="327.6045">&#171;extend&#187;</text></g><!--link Admin to UC20--><g id="link_Admin_UC20"><path d="M92.21,442.9294 C162.22,433.6994 306.34,411.9094 424,376.1094 C463.25,364.1594 478.38,367.4094 509,340.1094 C529.2,322.0894 518.08,304.2894 539,287.1094 C553.51,275.1894 565.7887,268.5168 583.6487,262.2468 " fill="none" id="Admin-to-UC20" style="stroke:#181818;stroke-width:1;"/><polygon fill="#181818" points="589.31,260.2594,579.4931,259.4664,584.5923,261.9156,582.1431,267.0148,589.31,260.2594" style="stroke:#181818;stroke-width:1;"/></g><!--link Admin to UC21--><g id="link_Admin_UC21"><path d="M92.29,460.8294 C178.69,484.1094 378.33,523.7294 509,438.1094 C535.61,420.6694 515.27,394.2994 539,373.1094 C552.65,360.9194 564.206,354.2055 581.586,347.9355 " fill="none" id="Admin-to-UC21" style="stroke:#181818;stroke-width:1;"/><polygon fill="#181818" points="587.23,345.8994,577.4067,345.1909,582.5267,347.5961,580.1215,352.7162,587.23,345.8994" style="stroke:#181818;stroke-width:1;"/></g><!--link Admin to UC22--><g id="link_Admin_UC22"><path d="M59.58,408.9994 C70.63,372.1294 92.45,318.0594 131,287.1094 C150.41,271.5194 168.9808,263.0486 193.1308,256.6386 " fill="none" id="Admin-to-UC22" style="stroke:#181818;stroke-width:1;"/><polygon fill="#181818" points="198.93,255.0994,189.205,253.5421,194.0973,256.3821,191.2574,261.2744,198.93,255.0994" style="stroke:#181818;stroke-width:1;"/></g><!--link Admin to UC23--><g id="link_Admin_UC23"><path d="M49.29,487.1994 C50.61,545.3594 62.77,653.1894 131,703.1094 C236.1,779.9994 294.71,718.6594 424,703.1094 C595.24,682.5194 651.35,696.8394 801,611.1094 C899.48,554.6894 979.9343,449.7183 1014.7943,399.8083 " fill="none" id="Admin-to-UC23" style="stroke:#181818;stroke-width:1;"/><polygon fill="#181818" points="1018.23,394.8894,1009.7972,399.9774,1015.3669,398.9885,1016.3558,404.5583,1018.23,394.8894" style="stroke:#181818;stroke-width:1;"/></g><!--link Admin to UC24--><g id="link_Admin_UC24"><path d="M86.33,487.2994 C96.89,496.1694 109.08,504.3694 122,509.1094 C283.49,568.3194 342.61,552.6894 509,509.1094 C555.09,497.0294 597.0101,471.818 627.9901,450.058 " fill="none" id="Admin-to-UC24" style="stroke:#181818;stroke-width:1;"/><polygon fill="#181818" points="632.9,446.6094,623.2361,448.5091,628.8084,449.4832,627.8343,455.0556,632.9,446.6094" style="stroke:#181818;stroke-width:1;"/></g><!--link Admin to UC25--><g id="link_Admin_UC25"><path d="M89.66,408.8494 C99.63,400.4794 110.72,392.2994 122,386.1094 C149.95,370.7494 177.0432,360.8406 206.9032,352.4606 " fill="none" id="Admin-to-UC25" style="stroke:#181818;stroke-width:1;"/><polygon fill="#181818" points="212.68,350.8394,202.934,349.42,207.866,352.1904,205.0956,357.1224,212.68,350.8394" style="stroke:#181818;stroke-width:1;"/></g><!--link Cajero to UC23--><g id="link_Cajero_UC23"><path d="M322.26,644.7694 C359.51,641.8394 442.33,633.4594 509,613.1094 C697.86,555.4694 900.9316,446.0205 988.2016,396.5005 " fill="none" id="Cajero-to-UC23" style="stroke:#181818;stroke-width:1;"/><polygon fill="#181818" points="993.42,393.5394,983.6183,394.5021,989.0713,396.007,987.5665,401.46,993.42,393.5394" style="stroke:#181818;stroke-width:1;"/></g><!--link Cajero to UC24--><g id="link_Cajero_UC24"><path d="M322.28,642.7594 C360.62,635.5994 446.74,616.2894 509,578.1094 C566.75,542.6894 615.7793,487.2205 643.9193,451.9305 " fill="none" id="Cajero-to-UC24" style="stroke:#181818;stroke-width:1;"/><polygon fill="#181818" points="647.66,447.2394,638.9215,451.7823,644.5427,451.1487,645.1764,456.7699,647.66,447.2394" style="stroke:#181818;stroke-width:1;"/></g><!--link InvUser to UC20--><g id="link_InvUser_UC20"><path d="M368.02,111.8894 C439.78,143.4094 547.7964,190.8667 612.9864,219.4967 " fill="none" id="InvUser-to-UC20" style="stroke:#181818;stroke-width:1;"/><polygon fill="#181818" points="618.48,221.9094,611.8481,214.628,613.902,219.8988,608.6312,221.9528,618.48,221.9094" style="stroke:#181818;stroke-width:1;"/></g><!--link InvUser to UC21--><g id="link_InvUser_UC21"><path d="M364.41,122.1894 C416.81,156.1094 486.84,203.6494 509,229.1094 C528.06,250.9994 516.92,268.2694 539,287.1094 C553.1,299.1394 565.0269,305.8289 582.6569,312.0989 " fill="none" id="InvUser-to-UC21" style="stroke:#181818;stroke-width:1;"/><polygon fill="#181818" points="588.31,314.1094,581.1706,307.3249,583.5991,312.434,578.49,314.8624,588.31,314.1094" style="stroke:#181818;stroke-width:1;"/></g><!--link InvUser to UC23--><g id="link_InvUser_UC23"><path d="M368.06,90.3894 C465.95,103.0494 654.48,134.4294 801,201.1094 C883.28,238.5494 961.6193,302.7302 1003.3193,339.6802 " fill="none" id="InvUser-to-UC23" style="stroke:#181818;stroke-width:1;"/><polygon fill="#181818" points="1007.81,343.6594,1003.7267,334.6968,1004.0678,340.3434,998.4212,340.6844,1007.81,343.6594" style="stroke:#181818;stroke-width:1;"/></g><!--link InvUser to UC24--><g id="link_InvUser_UC24"><path d="M344.64,122.2694 C368.54,144.9894 398.64,174.4894 424,202.1094 C464.15,245.8194 477.84,254.5894 509,305.1094 C526.34,333.2194 514.78,350.6494 539,373.1094 C550.59,383.8494 559.3278,389.7396 574.0978,396.0896 " fill="none" id="InvUser-to-UC24" style="stroke:#181818;stroke-width:1;"/><polygon fill="#181818" points="579.61,398.4594,572.9216,391.2299,575.0165,396.4845,569.7619,398.5794,579.61,398.4594" style="stroke:#181818;stroke-width:1;"/></g><rect fill="none" height="102.0469" id="_legend" rx="7.5" ry="7.5" style="stroke:#000000;stroke-width:1;" width="196.7441" x="978.2559" y="797.9994"/><text fill="#000000" font-family="sans-serif" font-size="14" font-weight="bold" lengthAdjust="spacing" textLength="36.5518" x="987.1455" y="819.5326">Color</text><text fill="#000000" font-family="sans-serif" font-size="14" font-weight="bold" lengthAdjust="spacing" textLength="29.5449" x="1031.4766" y="819.5326">Tipo</text><rect fill="#E8F5E9" height="17.6094" style="stroke:none;stroke-width:1;" width="44.3311" x="983.2559" y="822.6088"/><text fill="#000000" font-family="sans-serif" font-size="14" lengthAdjust="spacing" textLength="3.8896" x="983.2559" y="837.142">&#160;</text><text fill="#000000" font-family="sans-serif" font-size="14" lengthAdjust="spacing" textLength="134.6338" x="1031.4766" y="837.142">Caso de uso principal</text><rect fill="#E3F2FD" height="17.6094" style="stroke:none;stroke-width:1;" width="44.3311" x="983.2559" y="840.2181"/><text fill="#000000" font-family="sans-serif" font-size="14" lengthAdjust="spacing" textLength="3.8896" x="983.2559" y="854.7513">&#160;</text><text fill="#000000" font-family="sans-serif" font-size="14" lengthAdjust="spacing" textLength="133.0684" x="1031.4766" y="854.7513">Inclusi&#243;n (obligatorio)</text><rect fill="#FFF3E0" height="17.6094" style="stroke:none;stroke-width:1;" width="44.3311" x="983.2559" y="857.8275"/><text fill="#000000" font-family="sans-serif" font-size="14" lengthAdjust="spacing" textLength="3.8896" x="983.2559" y="872.3607">&#160;</text><text fill="#000000" font-family="sans-serif" font-size="14" lengthAdjust="spacing" textLength="126.8477" x="1031.4766" y="872.3607">Extensi&#243;n (opcional)</text><rect fill="#F5F5F5" height="17.6094" style="stroke:none;stroke-width:1;" width="44.3311" x="983.2559" y="875.4369"/><text fill="#000000" font-family="sans-serif" font-size="14" lengthAdjust="spacing" textLength="3.8896" x="983.2559" y="889.9701">&#160;</text><text fill="#000000" font-family="sans-serif" font-size="14" lengthAdjust="spacing" textLength="32.6758" x="1031.4766" y="889.9701">Actor</text><line style="stroke:#000000;stroke-width:1;" x1="983.2559" x2="1170" y1="804.9994" y2="804.9994"/><line style="stroke:#000000;stroke-width:1;" x1="983.2559" x2="1170" y1="822.6088" y2="822.6088"/><line style="stroke:#000000;stroke-width:1;" x1="983.2559" x2="1170" y1="840.2181" y2="840.2181"/><line style="stroke:#000000;stroke-width:1;" x1="983.2559" x2="1170" y1="857.8275" y2="857.8275"/><line style="stroke:#000000;stroke-width:1;" x1="983.2559" x2="1170" y1="875.4369" y2="875.4369"/><line style="stroke:#000000;stroke-width:1;" x1="983.2559" x2="1170" y1="893.0463" y2="893.0463"/><line style="stroke:#000000;stroke-width:1;" x1="983.2559" x2="983.2559" y1="804.9994" y2="893.0463"/><line style="stroke:#000000;stroke-width:1;" x1="1027.5869" x2="1027.5869" y1="804.9994" y2="893.0463"/><line style="stroke:#000000;stroke-width:1;" x1="1170" x2="1170" y1="804.9994" y2="893.0463"/><!--SRC=[ZLLHJzim47xFhxYL1zg7eZPf1rIi4aiJXBHDYD6zcyG43zUER6U33NxIdlW9_B6TupHAsanP8ZK- -xlFT-VprtSflME2mdKKtfn_kVWKGSA9rfwd7vZ8YI8Rk2N9GwPa8T9GSgdW88xisq3S4v7-LCmOAk2ES4sRxeMc2T4KVdk0pySssTdPfKXuaTBb4WwY8FRZbOD9bLAr3vcU7hzV-TrCqIFkdrfK7CT1DDadQY3cn-5aqirpfTY6gASoefDu7ftk4pKWmSb958JUIpDbaXYiKsV2TclxxdB2mSothoKop70AAqOo92EGKWY9bjeErbh263w_lQO5bsx5q4ogjpy4pupJEmD6WcBPlO6KAPeO9eNd7SAv3ObgpuKsE4ytJ31j54cb6W3HKCxKPr31GlATAbckks5TsmgmrWLHh8paKloWmbYhnAEvrbJLDVHiC4HacDdWA-vCNMONL1lszYhQ3F04LuKm9UytEpUegbd-v5XIaY5FTnssMFjics-u3lt90a95YMfWHpPIkmIDC-rqdYuWIfdfz9xsUllepHaMkDFVx_KFC7GfTC7R0UWjGz3BC5jW8HLSAPaMU7GQSjaLogoNQBw0QofLHWJxrHtCl9EZ7XoYFoS9zYKjMvhPswrj3zIGyaIEZfOkjGNoiQq4D37J_y3C-Z3_Z8jQiTYBQmv7uwNRtFBHIb5Ao8kzlBiqU7CJXhRjyJ6qxXqCm-lr2XAvoJarSkIvEpXs6qpQvhHj-cqpQ9kpjZdl2wkwt4EDKWGSBsgXoCYhPkijslQiZxHJ6xOvDzh6sqf5dVZEn7Ht8jYTc5djo_0adFILf_7y0Poouk26vHAUtJISLPAqnB4LLXjWWPzSONUmdF0cifH3YxoisnI6yfQpZA00CZbgW9qqMd1Kzmw2SriWmbl8yZ_08ajTnXMCtMNW_GK0]--></g></svg>