<svg xmlns="http://www.w3.org/2000/svg" xmlns:xlink="http://www.w3.org/1999/xlink" contentStyleType="text/css" height="1021px" preserveAspectRatio="none" style="width:830px;height:1021px;background:#FEFEFE;" version="1.1" viewBox="0 0 830 1021" width="830px" zoomAndPan="magnify"><title>Diagrama de Casos de Uso - M&#243;dulo de Clientes</title><defs/><g><rect fill="#FEFEFE" height="1021" style="stroke:none;stroke-width:1;" width="830" x="0" y="0"/><!--cluster Sistema de Gesti?n de Inventario y Punto de Venta--><g id="cluster_Sistema de Gesti&#243;n de Inventario y Punto de Venta"><rect fill="none" height="611" rx="2.5" ry="2.5" style="stroke:#181818;stroke-width:1;" width="685" x="139" y="146.5894"/><text fill="#000000" font-family="sans-serif" font-size="14" font-weight="bold" lengthAdjust="spacing" textLength="338.4131" x="312.2935" y="163.1226">Sistema de Gesti&#243;n de Inventario y Punto de Venta</text></g><!--cluster M?dulo de Clientes--><g id="cluster_M&#243;dulo de Clientes"><path d="M165.5,190.5894 L294.8379,190.5894 A3.75,3.75 0 0 1 297.3379,193.0894 L304.3379,214.1988 L797.5,214.1988 A2.5,2.5 0 0 1 800,216.6988 L800,731.0894 A2.5,2.5 0 0 1 797.5,733.5894 L165.5,733.5894 A2.5,2.5 0 0 1 163,731.0894 L163,193.0894 A2.5,2.5 0 0 1 165.5,190.5894 " fill="none" style="stroke:#000000;stroke-width:1.5;"/><line style="stroke:#000000;stroke-width:1.5;" x1="163" x2="304.3379" y1="214.1988" y2="214.1988"/><text fill="#000000" font-family="sans-serif" font-size="14" font-weight="bold" lengthAdjust="spacing" textLength="128.3379" x="167" y="207.1226">M&#243;dulo de Clientes</text></g><g id="elem_UC30"><ellipse cx="303.3798" cy="602.3919" fill="#E8F5E9" rx="92.3798" ry="25.8026" style="stroke:#388E3C;stroke-width:0.5;"/><text fill="#000000" font-family="sans-serif" font-size="14" font-style="italic" lengthAdjust="spacing" textLength="63.793" x="265.6713" y="595.8274">&#171;Primary&#187;</text><text fill="#000000" font-family="sans-serif" font-size="14" lengthAdjust="spacing" textLength="126.0479" x="234.5439" y="613.4368">UC30: Crear Cliente</text></g><g id="elem_UC31"><ellipse cx="303.3357" cy="515.3774" fill="#E8F5E9" rx="93.3357" ry="25.788" style="stroke:#388E3C;stroke-width:0.5;"/><text fill="#000000" font-family="sans-serif" font-size="14" font-style="italic" lengthAdjust="spacing" textLength="63.793" x="265.6025" y="508.7819">&#171;Primary&#187;</text><text fill="#000000" font-family="sans-serif" font-size="14" lengthAdjust="spacing" textLength="127.6133" x="233.6924" y="526.3913">UC31: Editar Cliente</text></g><g id="elem_UC32"><ellipse cx="303.4166" cy="252.7689" fill="#E8F5E9" rx="101.9166" ry="25.6795" style="stroke:#388E3C;stroke-width:0.5;"/><text fill="#000000" font-family="sans-serif" font-size="14" font-style="italic" lengthAdjust="spacing" textLength="63.793" x="265.4603" y="245.9349">&#171;Primary&#187;</text><text fill="#000000" font-family="sans-serif" font-size="14" lengthAdjust="spacing" textLength="141.6064" x="226.5535" y="263.5443">UC32: Eliminar Cliente</text></g><g id="elem_UC33"><ellipse cx="303.5092" cy="428.6783" fill="#E8F5E9" rx="112.0092" ry="25.5889" style="stroke:#388E3C;stroke-width:0.5;"/><text fill="#000000" font-family="sans-serif" font-size="14" font-style="italic" lengthAdjust="spacing" textLength="63.793" x="265.2877" y="421.6328">&#171;Primary&#187;</text><text fill="#000000" font-family="sans-serif" font-size="14" lengthAdjust="spacing" textLength="157.958" x="218.2052" y="439.2422">UC33: Consultar Clientes</text></g><g id="elem_UC34"><ellipse cx="664.6206" cy="643.8187" fill="#E8F5E9" rx="97.6206" ry="25.7293" style="stroke:#388E3C;stroke-width:0.5;"/><text fill="#000000" font-family="sans-serif" font-size="14" font-style="italic" lengthAdjust="spacing" textLength="63.793" x="626.7763" y="637.0959">&#171;Primary&#187;</text><text fill="#000000" font-family="sans-serif" font-size="14" lengthAdjust="spacing" textLength="134.6133" x="591.3662" y="654.7053">UC34: Buscar Cliente</text></g><g id="elem_UC35"><ellipse cx="303.5371" cy="340.3968" fill="#E8F5E9" rx="124.5371" ry="27.3074" style="stroke:#388E3C;stroke-width:0.5;"/><text fill="#000000" font-family="sans-serif" font-size="14" font-style="italic" lengthAdjust="spacing" textLength="63.793" x="266.1771" y="331.3757">&#171;Primary&#187;</text><text fill="#000000" font-family="sans-serif" font-size="14" lengthAdjust="spacing" textLength="199.958" x="198.0946" y="348.985">UC35: Ver Historial de Compras</text></g><g id="elem_UC36"><ellipse cx="303.5958" cy="690.4085" fill="#E8F5E9" rx="122.0958" ry="26.8192" style="stroke:#388E3C;stroke-width:0.5;"/><text fill="#000000" font-family="sans-serif" font-size="14" font-style="italic" lengthAdjust="spacing" textLength="63.793" x="266.0135" y="681.9158">&#171;Primary&#187;</text><text fill="#000000" font-family="sans-serif" font-size="14" lengthAdjust="spacing" textLength="190.6611" x="202.5794" y="699.5252">UC36: Asignar Cliente a Venta</text></g><g id="elem_UC37"><ellipse cx="664.3921" cy="428.3678" fill="#E8F5E9" rx="119.3921" ry="26.2784" style="stroke:#388E3C;stroke-width:0.5;"/><text fill="#000000" font-family="sans-serif" font-size="14" font-style="italic" lengthAdjust="spacing" textLength="63.793" x="626.527" y="420.465">&#171;Primary&#187;</text><text fill="#000000" font-family="sans-serif" font-size="14" lengthAdjust="spacing" textLength="179.7578" x="568.5445" y="438.0744">UC37: Ver Detalle de Cliente</text></g><!--entity Admin--><g id="elem_Admin"><ellipse cx="49.1826" cy="342.0894" fill="#E3F2FD" rx="8" ry="8" style="stroke:#424242;stroke-width:0.5;"/><path d="M49.1826,350.0894 L49.1826,377.0894 M36.1826,358.0894 L62.1826,358.0894 M49.1826,377.0894 L36.1826,392.0894 M49.1826,377.0894 L62.1826,392.0894 " fill="none" style="stroke:#424242;stroke-width:0.5;"/><text fill="#000000" font-family="sans-serif" font-size="14" lengthAdjust="spacing" textLength="86.3652" x="6" y="408.1226">Administrador</text></g><!--entity Cajero--><g id="elem_Cajero"><ellipse cx="49.1206" cy="649.0894" fill="#FFF3E0" rx="8" ry="8" style="stroke:#424242;stroke-width:0.5;"/><path d="M49.1206,657.0894 L49.1206,684.0894 M36.1206,665.0894 L62.1206,665.0894 M49.1206,684.0894 L36.1206,699.0894 M49.1206,684.0894 L62.1206,699.0894 " fill="none" style="stroke:#424242;stroke-width:0.5;"/><text fill="#000000" font-family="sans-serif" font-size="14" lengthAdjust="spacing" textLength="41.2412" x="28.5" y="715.1226">Cajero</text></g><!--link UC30 to UC34--><g id="link_UC30_UC34"><path d="M389.58,612.2994 C445.46,618.6794 512.4387,626.3386 569.0087,632.7986 " fill="none" id="UC30-to-UC34" style="stroke:#181818;stroke-width:1;stroke-dasharray:7.0,7.0;"/><polygon fill="#181818" points="574.97,633.4794,566.4819,628.4841,570.0023,632.9121,565.5743,636.4324,574.97,633.4794" style="stroke:#181818;stroke-width:1;"/><text fill="#000000" font-family="sans-serif" font-size="13" lengthAdjust="spacing" textLength="55.6563" x="459" y="618.0845">&#171;include&#187;</text></g><!--link UC31 to UC37--><g id="link_UC31_UC37"><path d="M374.57,498.6094 C434.46,484.0894 514.7988,464.6225 577.4388,449.4425 " fill="none" id="UC31-to-UC37" style="stroke:#181818;stroke-width:1;stroke-dasharray:7.0,7.0;"/><polygon fill="#181818" points="583.27,448.0294,573.5811,446.2616,578.4107,449.207,575.4653,454.0365,583.27,448.0294" style="stroke:#181818;stroke-width:1;"/><text fill="#000000" font-family="sans-serif" font-size="13" lengthAdjust="spacing" textLength="55.6563" x="459" y="464.0845">&#171;include&#187;</text></g><!--link UC36 to UC34--><g id="link_UC36_UC34"><path d="M408.82,676.9294 C462.23,669.9394 520.5307,662.2976 571.1407,655.6776 " fill="none" id="UC36-to-UC34" style="stroke:#181818;stroke-width:1;stroke-dasharray:7.0,7.0;"/><polygon fill="#181818" points="577.09,654.8994,567.6472,652.1005,572.1322,655.5479,568.6848,660.0329,577.09,654.8994" style="stroke:#181818;stroke-width:1;"/><text fill="#000000" font-family="sans-serif" font-size="13" lengthAdjust="spacing" textLength="55.6563" x="459" y="661.0845">&#171;include&#187;</text></g><!--link UC35 to UC37--><g id="link_UC35_UC37"><path d="M387.76,360.9994 C446.8,375.4694 519.7225,393.341 577.9425,407.611 " fill="none" id="UC35-to-UC37" style="stroke:#181818;stroke-width:1;stroke-dasharray:7.0,7.0;"/><polygon fill="#181818" points="583.77,409.0394,575.981,403.0118,578.9137,407.8491,574.0765,410.7819,583.77,409.0394" style="stroke:#181818;stroke-width:1;"/><text fill="#000000" font-family="sans-serif" font-size="13" lengthAdjust="spacing" textLength="53.4917" x="460" y="376.0845">&#171;extend&#187;</text></g><!--link Admin to UC30--><g id="link_Admin_UC30"><path d="M56.58,411.7094 C65.77,454.1194 86.63,520.7794 131,558.5894 C154.16,578.3194 179.1882,588.1358 208.3682,594.2658 " fill="none" id="Admin-to-UC30" style="stroke:#181818;stroke-width:1;"/><polygon fill="#181818" points="214.24,595.4994,206.2546,589.7345,209.3468,594.4714,204.6099,597.5636,214.24,595.4994" style="stroke:#181818;stroke-width:1;"/></g><!--link Admin to UC31--><g id="link_Admin_UC31"><path d="M73.2,411.5994 C87.42,432.3094 107.41,456.5294 131,471.5894 C156.91,488.1194 182.8914,497.1644 212.0714,503.6144 " fill="none" id="Admin-to-UC31" style="stroke:#181818;stroke-width:1;"/><polygon fill="#181818" points="217.93,504.9094,210.0055,499.0612,213.0478,503.8302,208.2788,506.8726,217.93,504.9094" style="stroke:#181818;stroke-width:1;"/></g><!--link Admin to UC32--><g id="link_Admin_UC32"><path d="M83.45,333.2694 C96.96,319.5594 113.49,305.2194 131,295.5894 C156.69,281.4594 181.223,273.2358 209.233,266.7858 " fill="none" id="Admin-to-UC32" style="stroke:#181818;stroke-width:1;"/><polygon fill="#181818" points="215.08,265.4394,205.4119,263.561,210.2075,266.5614,207.2071,271.357,215.08,265.4394" style="stroke:#181818;stroke-width:1;"/></g><!--link Admin to UC33--><g id="link_Admin_UC33"><path d="M92.26,381.9594 C127.71,389.8194 173.4722,399.9707 216.6822,409.5507 " fill="none" id="Admin-to-UC33" style="stroke:#181818;stroke-width:1;"/><polygon fill="#181818" points="222.54,410.8494,214.6192,404.9961,217.6585,409.7671,212.8876,412.8065,222.54,410.8494" style="stroke:#181818;stroke-width:1;"/></g><!--link Admin to UC34--><g id="link_Admin_UC34"><path d="M57.23,333.3394 C66.74,294.3094 87.62,236.4694 131,209.5894 C243.2,140.0494 313.03,144.7294 428,209.5894 C493.12,246.3294 486.21,284.5794 515,353.5894 C536,403.9294 522.44,422.9294 545,472.5894 C570.7,529.1494 611.5155,582.2929 638.0555,614.0929 " fill="none" id="Admin-to-UC34" style="stroke:#181818;stroke-width:1;"/><polygon fill="#181818" points="641.9,618.6994,639.2042,609.2266,638.6962,614.8606,633.0622,614.3527,641.9,618.6994" style="stroke:#181818;stroke-width:1;"/></g><!--link Admin to UC35--><g id="link_Admin_UC35"><path d="M92.26,367.2294 C120.48,363.6494 152.9976,359.5335 189.3076,354.9335 " fill="none" id="Admin-to-UC35" style="stroke:#181818;stroke-width:1;"/><polygon fill="#181818" points="195.26,354.1794,185.8286,351.3422,190.2996,354.8078,186.8341,359.2788,195.26,354.1794" style="stroke:#181818;stroke-width:1;"/></g><!--link Admin to UC36--><g id="link_Admin_UC36"><path d="M50.17,411.6494 C52.62,470.7994 66.19,582.8094 131,645.5894 C147.8,661.8594 164.0078,670.6994 186.5478,677.5294 " fill="none" id="Admin-to-UC36" style="stroke:#181818;stroke-width:1;"/><polygon fill="#181818" points="192.29,679.2694,184.8367,672.8313,187.5049,677.8194,182.5168,680.4875,192.29,679.2694" style="stroke:#181818;stroke-width:1;"/></g><!--link Admin to UC37--><g id="link_Admin_UC37"><path d="M49.6,333.3094 C51.46,281.0494 63.53,190.2694 122,147.5894 C263.08,44.6094 365.4,57.4394 515,147.5894 C609.29,204.3994 645.5982,337.441 657.5682,395.991 " fill="none" id="Admin-to-UC37" style="stroke:#181818;stroke-width:1;"/><polygon fill="#181818" points="658.77,401.8694,660.8863,392.2506,657.7685,396.9707,653.0484,393.8529,658.77,401.8694" style="stroke:#181818;stroke-width:1;"/></g><!--link Cajero to UC30--><g id="link_Cajero_UC30"><path d="M69.65,670.3494 C85.86,662.9694 109.59,652.7194 131,645.5894 C162.89,634.9594 193.0415,626.9421 223.7815,619.6621 " fill="none" id="Cajero-to-UC30" style="stroke:#181818;stroke-width:1;"/><polygon fill="#181818" points="229.62,618.2794,219.9404,616.4611,224.7546,619.4316,221.784,624.2458,229.62,618.2794" style="stroke:#181818;stroke-width:1;"/></g><!--link Cajero to UC31--><g id="link_Cajero_UC31"><path d="M66.85,640.3994 C80.39,613.4794 101.95,579.0294 131,558.5894 C155.73,541.1794 180.9427,532.0641 209.8427,525.8841 " fill="none" id="Cajero-to-UC31" style="stroke:#181818;stroke-width:1;"/><polygon fill="#181818" points="215.71,524.6294,206.0725,522.5998,210.8205,525.6749,207.7454,530.423,215.71,524.6294" style="stroke:#181818;stroke-width:1;"/></g><!--link Cajero to UC33--><g id="link_Cajero_UC33"><path d="M54.42,640.5094 C61.85,593.4894 81.29,515.4094 131,471.5894 C150,454.8394 168.7555,445.9384 193.3255,439.5084 " fill="none" id="Cajero-to-UC33" style="stroke:#181818;stroke-width:1;"/><polygon fill="#181818" points="199.13,437.9894,189.4105,436.3983,194.2929,439.2553,191.4359,444.1376,199.13,437.9894" style="stroke:#181818;stroke-width:1;"/></g><!--link Cajero to UC34--><g id="link_Cajero_UC34"><path d="M62.53,718.6994 C73.52,745.8694 92.44,780.0694 122,796.5894 C274.48,881.7894 354.13,864.6294 515,796.5894 C576.54,770.5594 621.878,710.2181 645.188,673.9181 " fill="none" id="Cajero-to-UC34" style="stroke:#181818;stroke-width:1;"/><polygon fill="#181818" points="648.43,668.8694,640.2012,674.2811,645.7283,673.0766,646.9328,678.6038,648.43,668.8694" style="stroke:#181818;stroke-width:1;"/></g><!--link Cajero to UC36--><g id="link_Cajero_UC36"><path d="M69.81,680.4494 C94.81,681.5394 133.8457,683.2382 177.6857,685.1482 " fill="none" id="Cajero-to-UC36" style="stroke:#181818;stroke-width:1;"/><polygon fill="#181818" points="183.68,685.4094,174.8626,681.0214,178.6847,685.1917,174.5144,689.0138,183.68,685.4094" style="stroke:#181818;stroke-width:1;"/></g><!--link Cajero to UC37--><g id="link_Cajero_UC37"><path d="M69.51,697.8294 C84.9,710.8894 107.6,727.3894 131,734.5894 C257.17,773.3694 301.36,771.8194 428,734.5894 C472.12,721.6094 485.98,714.2494 515,678.5894 C538.44,649.7794 527.68,633.4394 545,600.5894 C573.92,545.7394 613.3916,492.1518 638.8616,459.4718 " fill="none" id="Cajero-to-UC37" style="stroke:#181818;stroke-width:1;"/><polygon fill="#181818" points="642.55,454.7394,633.8625,459.3791,639.4764,458.6831,640.1724,464.2969,642.55,454.7394" style="stroke:#181818;stroke-width:1;"/></g><rect fill="none" height="102.0469" id="_legend" rx="7.5" ry="7.5" style="stroke:#000000;stroke-width:1;" width="196.7441" x="607.2559" y="899.7894"/><text fill="#000000" font-family="sans-serif" font-size="14" font-weight="bold" lengthAdjust="spacing" textLength="36.5518" x="616.1455" y="921.3226">Color</text><text fill="#000000" font-family="sans-serif" font-size="14" font-weight="bold" lengthAdjust="spacing" textLength="29.5449" x="660.4766" y="921.3226">Tipo</text><rect fill="#E8F5E9" height="17.6094" style="stroke:none;stroke-width:1;" width="44.3311" x="612.2559" y="924.3988"/><text fill="#000000" font-family="sans-serif" font-size="14" lengthAdjust="spacing" textLength="3.8896" x="612.2559" y="938.932">&#160;</text><text fill="#000000" font-family="sans-serif" font-size="14" lengthAdjust="spacing" textLength="134.6338" x="660.4766" y="938.932">Caso de uso principal</text><rect fill="#E3F2FD" height="17.6094" style="stroke:none;stroke-width:1;" width="44.3311" x="612.2559" y="942.0081"/><text fill="#000000" font-family="sans-serif" font-size="14" lengthAdjust="spacing" textLength="3.8896" x="612.2559" y="956.5413">&#160;</text><text fill="#000000" font-family="sans-serif" font-size="14" lengthAdjust="spacing" textLength="133.0684" x="660.4766" y="956.5413">Inclusi&#243;n (obligatorio)</text><rect fill="#FFF3E0" height="17.6094" style="stroke:none;stroke-width:1;" width="44.3311" x="612.2559" y="959.6175"/><text fill="#000000" font-family="sans-serif" font-size="14" lengthAdjust="spacing" textLength="3.8896" x="612.2559" y="974.1507">&#160;</text><text fill="#000000" font-family="sans-serif" font-size="14" lengthAdjust="spacing" textLength="126.8477" x="660.4766" y="974.1507">Extensi&#243;n (opcional)</text><rect fill="#F5F5F5" height="17.6094" style="stroke:none;stroke-width:1;" width="44.3311" x="612.2559" y="977.2269"/><text fill="#000000" font-family="sans-serif" font-size="14" lengthAdjust="spacing" textLength="3.8896" x="612.2559" y="991.7601">&#160;</text><text fill="#000000" font-family="sans-serif" font-size="14" lengthAdjust="spacing" textLength="32.6758" x="660.4766" y="991.7601">Actor</text><line style="stroke:#000000;stroke-width:1;" x1="612.2559" x2="799" y1="906.7894" y2="906.7894"/><line style="stroke:#000000;stroke-width:1;" x1="612.2559" x2="799" y1="924.3988" y2="924.3988"/><line style="stroke:#000000;stroke-width:1;" x1="612.2559" x2="799" y1="942.0081" y2="942.0081"/><line style="stroke:#000000;stroke-width:1;" x1="612.2559" x2="799" y1="959.6175" y2="959.6175"/><line style="stroke:#000000;stroke-width:1;" x1="612.2559" x2="799" y1="977.2269" y2="977.2269"/><line style="stroke:#000000;stroke-width:1;" x1="612.2559" x2="799" y1="994.8363" y2="994.8363"/><line style="stroke:#000000;stroke-width:1;" x1="612.2559" x2="612.2559" y1="906.7894" y2="994.8363"/><line style="stroke:#000000;stroke-width:1;" x1="656.5869" x2="656.5869" y1="906.7894" y2="994.8363"/><line style="stroke:#000000;stroke-width:1;" x1="799" x2="799" y1="906.7894" y2="994.8363"/><!--SRC=[XLNjJjim5FsVfxWhFsWbYjgcRQ1YbKgQCgHjGWpstoGcUBXnP3lRqE2fU0HURDVE1qbJb4PgVPrpZu_lLpz5z9ub5Au3_sRr_U9h024dIZcEUcH9IYJPmXq97sCfiYJo1HSI3ZQ1UMg81v94VoJJcYPmJxYYTVTCqP0e2lySmCzva-pix389UHRHvH8E0dSpsQnpc90HbMt8-DIRhoVxcOA_U7vaK9lDnWr6RQ8QOkRvez5-dYl9jaG-MKKdcrbmsYQgGToJay3rdPVwbKceCKvxBsoEDiyk9nnC9-OnH9ffJc7DI8na128AFb52cSMj4Z24Rs-lKSQ5VSCPJJJ5X75whq4Ba2n-q10nIKFDHE8uXx0oUX2Jw-gjeYrBcDAIH4BsW2YmErK22fXFVb4fxFjyMGNMCTmaYL5bxmSIqLpb1LMQlRqcPdsP_4PTH381Jt2L9Tgg_MdsUaLax5UAuI4nykovKmaqdxAA-hU-Erg0BocH9N1W99fzg6Lch-Tu0K74TDjrtEawGLVEC4njvqcdiukAHQ8oNZjQbUvkf_jq0UUP2jidJpjTPmiCkeGlc2KX6U4slcARIbATF-iacIzWfLXSkpgGF9SbnxoJmyk5hAac7ElcFSqbXRUNebeSmZNb9CIAfhOJc1aAofHR1R4bS7oyp2EpG3vMJeuwPbnYl8ynyowU3tLHCsDQkcPmFAoTIOj1P24lfkTtQR3XGuQsQQSXD3eM-lxrxHf2p2AdMWoSl7k7-G6ZfZbkcfEcwJRDQTESDSrvq_IwH1T3eszxzQXelAFtHXWu1Q9IthJ7ExQxOqztxFcExPcP66ESyv5eO_ty6V9nYuiRbWfuphVXh9ZrIroRQMkka-5FAZ7tBCN6gI7jc3J8owe8eI_kE8k9wJ8ng87paMd0GLKP24vDr0Xl8EqVWq7QUOrlK7j-0-S_]--></g></svg>